<svg width="628" height="133" viewBox="0 0 628 133" fill="none" xmlns="http://www.w3.org/2000/svg">
<path fill-rule="evenodd" clip-rule="evenodd" d="M373.819 56.8914C370.176 57.1628 367.645 61.5387 366.224 70.0191C364.709 79.0614 362.796 85.59 360.485 89.5994L364.384 89.1624H366.767L373.045 90.1478C374.128 90.2944 375.643 90.0392 377.594 89.3823C379.254 88.8719 381.489 87.5961 384.305 85.552C384.09 80.739 383.007 74.7968 381.057 67.7199C379.181 60.8655 377.629 57.3284 376.401 57.1085L375.211 56.8914H374.561C374.308 56.8724 374.061 56.8724 373.819 56.8914ZM596.965 52.9525C593.212 52.9525 588.989 54.9586 584.298 58.968C579.389 63.2001 577.079 67.7931 577.369 72.7527L578.019 83.1469C583.647 83.1469 588.989 81.2494 594.042 77.4571C598.518 74.1019 602.164 69.6907 604.977 64.2208C604.544 62.1061 603.606 59.8448 602.164 57.437C600.431 54.4482 598.698 52.9525 596.965 52.9525ZM374.227 44.9282C374.585 44.9309 374.95 44.9445 375.318 44.9662C380.012 45.2593 383.98 49.961 387.228 59.0793C390.839 69.1423 393.039 77.0553 393.834 82.8184L398.813 117.606L397.948 120.014C397.588 121.108 397.099 121.892 396.486 122.365C395.874 122.84 395.242 123.149 394.592 123.296L392.967 123.404C391.884 123.331 391.126 123.187 390.694 122.967L388.853 122.31L389.178 117.934L389.504 113.667C389.936 109.291 389.592 106.028 388.475 103.878C387.354 101.725 384.848 100.504 380.949 100.213C369.905 99.41 362.957 99.5375 360.106 100.596C357.256 101.652 354.945 104.169 353.178 108.143C351.41 112.12 348.468 115.638 344.355 118.7L342.404 119.137H340.239C339.229 119.066 338.544 118.7 338.181 118.043C338.038 117.462 338.001 116.694 338.073 115.746C338.218 113.852 338.543 111.954 339.049 110.059C339.699 107.725 340.276 105.939 340.782 104.698C342.584 100.832 345.905 91.7874 350.741 77.5657C354.639 66.0449 358.357 57.4017 361.893 51.6387C364.735 47.127 368.846 44.8902 374.227 44.9282ZM597.94 40.4817C602.199 40.4817 606.384 42.9411 610.5 47.8654C614.614 52.7869 616.706 57.475 616.779 61.9242C616.852 69.1423 613.821 75.1225 607.685 79.8649L590.901 92.7728L616.129 111.042C617.429 112.209 618.439 114.872 619.162 119.028C616.997 122.31 614.651 123.988 612.123 124.061C609.67 124.134 606.927 122.712 603.894 119.794L591.769 108.308C586.788 103.639 582.205 99.9203 578.019 97.1487L579.102 125.047L572.173 128L567.299 121.325V76.1459C567.299 66.444 569.97 58.2025 575.311 51.4215C581.015 44.1274 588.556 40.4817 597.94 40.4817ZM483.264 39.9333C482.327 40.1532 481.209 40.6635 479.909 41.4643C474.423 48.6852 471.499 57.6189 471.139 68.2682C481.894 69.4355 488.498 65.1329 490.953 55.3603C493.406 46.242 490.843 41.1006 483.264 39.9333ZM537.857 38.8394C528.472 42.4145 522.228 50.5094 519.125 63.1268C518.188 65.0948 517.825 67.1742 518.043 69.3622L528.437 66.8457C532.55 64.6578 536.159 60.9388 539.264 55.6861C542.873 46.9342 542.402 41.3205 537.857 38.8394ZM106.666 34.135L110.239 34.6833C112.044 34.9738 113.38 36.0678 114.245 37.9653C114.608 38.986 115.002 40.7722 115.438 43.3266L112.512 70.1277L105.043 94.7436C102.95 101.598 101.072 106.557 99.412 109.62C96.7415 114.579 93.1682 118.371 88.6923 120.999C88.0448 121.363 87.0346 121.618 85.6618 121.765C84.3614 121.765 83.0638 121.545 81.7635 121.108L78.6255 119.465C74.437 115.163 71.8391 109.948 70.8289 103.821L67.7984 85.7719C66.8581 80.1554 63.7201 75.1958 58.3764 70.8932C57.0787 70.5295 54.3706 75.0519 50.2574 84.458C43.256 100.284 38.9252 109.839 37.2648 113.121C35.0994 117.351 32.4289 119.503 29.2533 119.577C28.313 119.577 27.3028 119.156 26.2201 118.317C25.1374 117.478 24.1272 116.148 23.1896 114.324C20.8065 107.98 18.2811 98.8643 15.6106 86.9744C12.8675 74.7235 10.4856 65.8251 8.46468 60.2819L5.54136 52.187C5.46909 51.3835 5.28854 50.4008 5 49.2335V47.7025C5 46.0249 5.50509 44.3473 6.5158 42.6696C6.73235 42.3765 7.2737 41.7928 8.13987 40.9187L11.9294 37.9653L13.77 37.6368C17.6677 37.6368 20.3014 42.4877 21.6743 52.187C21.7468 52.9172 22.1794 57.437 22.972 65.7518C23.7672 74.2837 24.3448 79.6098 24.7048 81.7244C26.1475 89.6727 28.278 93.6849 31.0936 93.7582C31.8862 93.7582 32.754 93.503 33.6916 92.9927C35.497 90.0745 38.1675 84.6046 41.7031 76.583C44.8787 69.4355 47.8743 63.9656 50.6899 60.1733C54.1557 55.4309 57.2937 52.5888 60.1092 51.6387L65.3079 49.8904C67.9058 49.8904 70.1787 52.5888 72.1292 57.9854C73.4994 61.7043 75.9523 70.0191 79.4906 82.927C82.5937 94.0133 84.6516 100.175 85.6618 101.416C86.457 102.146 87.2146 102.657 87.9347 102.947C91.0404 102.947 93.9635 94.9987 96.7065 79.0994C98.9445 65.9717 100.062 56.0878 100.062 49.4507C100.062 45.0748 99.7021 42.2679 98.9794 41.0273C100.28 36.4342 102.84 34.135 106.666 34.135ZM141.971 33.4808C143.268 33.6246 144.424 34.9738 145.434 37.5282C146.662 40.8101 146.627 44.8929 145.326 49.7791C144.966 51.3835 144.424 53.0611 143.704 54.812L138.83 95.2892L139.698 103.276C137.602 104.006 135.746 104.771 134.121 105.572C132.498 106.376 130.999 106.739 129.628 106.666C127.605 106.449 126.055 105.626 124.973 104.204C123.89 102.784 123.6 100.979 124.105 98.791C124.322 97.9142 124.682 97.0754 125.187 96.2746C126.27 74.0286 128.906 60.9008 133.092 56.8914C132.514 47.1894 132.694 41.2825 133.634 39.1678C136.305 35.1557 139.083 33.2609 141.971 33.4808ZM535.979 30.2205C544.772 30.2043 550.306 35.0471 552.582 44.7463C553.807 57.5836 548.359 67.6493 536.231 74.9407L532.225 76.2545C530.998 76.7649 529.52 77.1286 527.787 77.3485L526.162 77.5657L525.404 77.8941H521.616C521.831 78.9148 522.193 80.0468 522.699 81.2874L523.024 81.833C530.24 92.1892 539.842 93.7935 551.822 86.646C552.835 86.2822 553.987 86.1003 555.287 86.1003C557.525 86.684 559.438 88.1064 561.026 90.3677C561.386 92.9194 561.061 95.4358 560.051 97.9142C553.7 102.874 548.251 105.282 543.703 105.135L540.347 105.026L533.633 106.666C528.797 105.939 524.971 103.677 522.156 99.885C519.34 96.0927 515.12 91.6055 509.488 86.4288C504.002 70.2363 506.818 54.3749 517.935 38.8394C518.655 37.9653 519.738 36.9799 521.183 35.8859L521.616 35.3403L523.024 34.5747L523.564 34.0264C524.937 33.1523 526.849 32.2755 529.302 31.4014L532.01 30.5246C533.399 30.3264 534.721 30.2233 535.979 30.2205ZM180.043 29.9437C183.082 30.0414 184.382 33.1523 183.939 39.2764L191.625 37.8567L192.168 37.6368L194.008 37.1997H195.091C195.741 37.8567 196.281 38.6955 196.714 39.7162C197.219 43.2153 196.571 46.6438 194.766 49.999C193.393 50.7998 191.625 51.4215 189.46 51.8585C187.727 52.2956 186.322 52.5155 185.239 52.5155C184.876 52.6593 184.371 52.7326 183.721 52.7326L183.181 53.3895C183.326 54.4835 183.289 55.7241 183.074 57.1085C183.143 57.9853 183.074 58.968 182.856 60.062V62.1414C182.711 63.0182 182.638 64.0742 182.638 65.3147L182.313 68.2682V70.3476C182.098 72.1691 181.991 73.7028 181.991 74.9407L181.773 76.0347L181.556 78.9881L181.448 80.1934C181.448 81.5778 181.231 83.4753 180.798 85.8804C180.725 88.5054 180.331 90.6228 179.608 92.2271C176.287 99.3014 172.752 101.088 168.998 97.5857C168.636 96.3479 168.456 94.9607 168.456 93.4297C168.673 92.3357 168.781 90.9486 168.781 89.2737L168.998 87.74C169.068 86.3555 169.178 85.1882 169.321 84.2408V83.364L169.863 76.2545C170.151 75.0872 170.296 73.5915 170.296 71.77L170.403 70.5648V68.2682L170.621 67.6113V65.9717L170.839 65.0948V63.6724C170.911 62.5051 170.946 61.0121 170.946 59.1879C171.091 57.9473 171.164 56.4163 171.164 54.5921L171.379 50.5447C168.276 51.1283 165.713 51.093 163.692 50.4361L158.171 50.9844L155.463 50.4361L153.623 49.6706L152.215 49.562L150.915 48.5766C150.41 48.2128 149.904 47.1541 149.399 45.4032C149.544 43.8722 150.084 42.5583 151.025 41.4643C151.745 40.2998 152.468 39.6049 153.19 39.3877L154.923 39.4963L156.763 40.2618L158.929 40.9187L171.704 41.6842C172.787 36.2876 175.097 32.4221 178.633 30.0875C179.138 29.9789 179.608 29.9301 180.043 29.9437ZM480.486 29.2813C499.505 29.2297 506.565 40.4003 501.67 62.7983C497.125 75.7795 487.235 82.0529 472.005 81.6158C471.862 84.0942 472.185 87.3029 472.98 91.2417L473.305 92.6642C472.942 94.7056 471.862 96.4565 470.057 97.9142C461.755 101.052 457.677 95.4358 457.822 81.0675C447.067 80.777 442.266 77.1666 443.422 70.2363C446.31 65.4233 451.181 64.3293 458.039 66.9543C458.039 56.7448 460.925 46.8637 466.701 37.3083L468.649 35.0118L470.057 33.8065L471.032 32.8238C472.98 31.3634 475.363 30.3074 478.176 29.6505L478.611 29.322C479.248 29.2976 479.874 29.284 480.486 29.2813ZM241.873 29.0478C243.16 29.0478 244.587 29.2134 246.156 29.5419C247.166 30.6359 247.854 31.8384 248.214 33.1523L247.996 34.5747V37.3083L247.674 37.7454L247.131 46.4972L246.913 48.1395L246.591 53.8266C246.446 53.9732 246.373 54.2663 246.373 54.7034L245.831 65.8603L245.616 66.5173V71.8786C252.399 72.0252 254.097 73.8114 250.704 77.2399C248.899 80.0088 246.913 81.1408 244.748 80.6304L245.616 89.8193C246.986 97.0401 243.485 102.401 235.114 105.901C233.163 106.047 231.395 105.537 229.808 104.37L228.832 100.979L230.24 86.4288L231.215 81.2874L222.986 82.3814L214.325 82.5985L217.033 90.0392L218.44 94.1952C219.378 96.3832 219.486 98.6064 218.763 100.868C217.97 102.619 217.033 104.296 215.95 105.901C213.349 107.288 210.391 107.578 207.071 106.777C206.493 106.194 205.88 104.915 205.23 102.947L204.905 101.196L204.148 97.2573L203.93 95.5091L203.605 94.6323L203.065 89.5994L202.847 88.5055V86.646C202.632 85.7719 202.522 84.7132 202.522 83.4753C201.007 83.3287 199.457 82.7451 197.869 81.7244C197.361 77.9321 198.841 74.5036 202.307 71.4416V70.1277C202.307 68.8871 202.38 67.3561 202.522 65.5319V64.0009L202.847 63.5638V61.4844L203.39 58.3138V57.437L204.365 51.7499L204.688 50.2162L204.905 48.7965C204.905 48.2128 205.085 47.4473 205.448 46.4972C205.663 45.7697 205.843 45.0395 205.988 44.3093L206.206 43.3266C206.566 42.4498 207.178 41.3205 208.046 39.9333L208.371 39.4963C210.246 37.3816 212.774 35.7393 215.95 34.5747C218.403 34.2815 220.423 35.0118 222.011 36.7627C222.374 38.0005 221.941 39.0212 220.713 39.8248L221.253 42.3412L220.063 44.4205C219.486 45.5851 219.125 46.28 218.98 46.4972C218.835 46.7171 218.44 47.7025 217.79 49.4507V51.093C217.79 53.2077 217.538 54.9206 217.033 56.2344L215.625 71.4416C219.666 71.732 222.914 71.8053 225.369 71.6587C226.594 71.8053 228.832 71.8053 232.08 71.6587C232.371 68.5234 232.516 66.2621 232.516 64.8777C234.391 54.3016 235.366 44.4205 235.439 35.2289C234.716 33.2609 236.449 31.2195 240.635 29.1049C241.032 29.0668 241.443 29.0478 241.873 29.0478ZM447.43 23.8331C452.142 23.9363 454.343 26.8599 454.026 32.604C453.376 34.0617 452.438 35.267 451.21 36.2143C449.622 37.0179 447.637 37.7454 445.256 38.4023C445.111 38.5489 444.84 38.7118 444.442 38.8936C444.047 39.0782 443.669 39.1678 443.306 39.1678L439.95 40.3704L439.085 40.8102L437.352 41.5757C435.91 42.0127 434.319 42.8135 432.589 43.9808L431.614 44.4205C430.819 45.2213 430.026 46.28 429.231 47.5912L429.016 52.0784L429.231 53.8266L430.749 59.2965C431.036 59.9534 431.254 60.8302 431.396 61.9242L432.154 63.8923L432.804 67.0656L433.347 67.9397C433.489 69.107 433.814 70.3096 434.319 71.5501C434.319 72.5708 434.537 73.6295 434.969 74.7235L435.187 76.3631L435.512 78.3339L435.727 79.5364L435.945 80.739V85.1149L435.727 86.5374L435.512 88.1797L434.754 90.3677C429.701 99.0462 419.922 102.108 405.411 99.5565C399.71 95.5444 399.818 91.2771 405.736 86.7573L409.742 86.5374C413.858 87.3409 417.971 86.8658 422.087 85.1149C422.447 83.9477 422.554 82.7451 422.409 81.5045L418.839 67.2828L418.514 66.3001L418.296 65.3147L418.079 64.3293L417.321 62.4698L417.106 61.0474L415.913 55.6861L415.698 54.4835V52.624L415.481 51.8585C415.481 50.6179 415.553 49.0136 415.698 47.0456V46.3886L416.131 44.4205L416.456 43.2153L417.106 41.5757C417.248 41.0653 417.573 40.4084 418.079 39.6049L419.704 36.9799C425.623 31.3634 433.347 27.3539 442.873 24.9461L445.256 23.9607C446.033 23.8602 446.756 23.8195 447.43 23.8331ZM328.796 8.86487H344.28C345.435 10.4692 346.047 11.9649 346.12 13.3494C346.12 14.5166 342.764 16.4141 336.05 19.0391C328.976 21.7374 325.621 26.6617 325.981 33.8065L326.306 38.8394L326.956 56.4543L328.256 83.6925C328.616 91.7168 329.699 99.5185 331.505 107.103C329.699 112.209 327.082 115.928 323.654 118.263C320.226 120.597 316.021 121.765 311.04 121.765C306.132 121.765 301.224 120.633 296.315 118.371C290.684 115.82 286.788 112.573 284.623 108.637C284.623 105.135 285.741 103.349 287.978 103.276C289.349 103.202 293.139 105.026 299.346 108.745C305.122 112.247 309.343 114.069 312.016 114.215C314.614 114.289 316.669 112.429 318.187 108.637C318.187 96.6031 317.682 82.4546 316.669 66.1888C316.599 62.9069 316.274 57.7302 315.696 50.656C315.191 46.8637 314.541 42.0127 313.746 36.1058V33.2609C314.109 31.5833 314.974 28.7764 316.347 24.8375L305.952 24.9461H297.073C291.227 24.9461 288.304 24.3272 288.304 23.0866C288.304 22.4297 288.809 21.2624 289.819 19.5848L292.202 15.6486C296.605 12.2934 303.282 10.5425 312.231 10.3959C316.202 10.3226 318.98 10.252 320.567 10.1787C324.466 9.95884 327.209 9.5218 328.796 8.86487Z" stroke="#231F20" stroke-width="9" stroke-miterlimit="10" stroke-linejoin="round"/>
<mask id="mask0_3_168" style="mask-type:alpha" maskUnits="userSpaceOnUse" x="7" y="0" width="622" height="127">
<path d="M628.182 0.683044H7.18181V126.683H628.182V0.683044Z" fill="white"/>
<path fill-rule="evenodd" clip-rule="evenodd" d="M379.001 51.7095C375.358 51.981 372.827 56.3569 371.406 64.8373C369.89 73.8796 367.978 80.4082 365.667 84.4176L369.565 83.9806H371.948L378.227 84.966C379.31 85.1126 380.825 84.8574 382.776 84.2004C384.436 83.6901 386.671 82.4142 389.487 80.3702C389.272 75.5572 388.189 69.615 386.239 62.538C384.363 55.6837 382.81 52.1466 381.583 51.9267L380.392 51.7095H379.742C379.49 51.6905 379.243 51.6905 379.001 51.7095ZM602.147 47.7707C598.394 47.7707 594.17 49.7768 589.479 53.7862C584.571 58.0183 582.261 62.6113 582.551 67.5709L583.201 77.965C588.829 77.965 594.17 76.0675 599.224 72.2753C603.7 68.92 607.346 64.5088 610.158 59.0389C609.726 56.9243 608.788 54.663 607.346 52.2552C605.613 49.2664 603.88 47.7707 602.147 47.7707ZM379.409 39.7463C379.767 39.7491 380.132 39.7626 380.5 39.7843C385.193 40.0775 389.162 44.7792 392.41 53.8975C396.021 63.9605 398.221 71.8735 399.016 77.6366L403.995 112.424L403.129 114.832C402.769 115.926 402.28 116.71 401.668 117.183C401.055 117.658 400.424 117.967 399.774 118.114L398.148 118.222C397.066 118.149 396.308 118.005 395.876 117.785L394.035 117.128L394.36 112.752L394.685 108.485C395.118 104.109 394.774 100.846 393.656 98.6963C392.536 96.5437 390.029 95.3221 386.131 95.0316C375.086 94.2281 368.139 94.3557 365.288 95.4144C362.438 96.4704 360.127 98.9868 358.359 102.961C356.592 106.938 353.65 110.456 349.536 113.518L347.586 113.955H345.421C344.41 113.884 343.725 113.518 343.363 112.861C343.22 112.28 343.183 111.512 343.255 110.565C343.4 108.67 343.725 106.772 344.23 104.877C344.881 102.543 345.458 100.757 345.963 99.5162C347.766 95.6506 351.087 86.6056 355.923 72.3838C359.821 60.8631 363.539 52.2199 367.075 46.4568C369.917 41.9452 374.028 39.7083 379.409 39.7463ZM603.122 35.2998C607.38 35.2998 611.566 37.7593 615.682 42.6835C619.795 47.6051 621.888 52.2932 621.961 56.7424C622.033 63.9605 619.003 69.9407 612.867 74.6831L596.083 87.591L621.311 105.86C622.611 107.027 623.621 109.69 624.344 113.846C622.178 117.128 619.833 118.806 617.305 118.879C614.852 118.953 612.109 117.53 609.076 114.612L596.951 103.127C591.97 98.4574 587.387 94.7385 583.201 91.9669L584.283 119.865L577.355 122.818L572.481 116.143V70.9641C572.481 61.2622 575.152 53.0207 580.493 46.2396C586.196 38.9455 593.738 35.2998 603.122 35.2998ZM488.446 34.7515C487.508 34.9714 486.391 35.4817 485.09 36.2825C479.604 43.5033 476.681 52.437 476.321 63.0864C487.076 64.2536 493.68 59.951 496.135 50.1785C498.588 41.0602 496.025 35.9188 488.446 34.7515ZM543.038 33.6575C533.654 37.2327 527.41 45.3275 524.307 57.9449C523.37 59.913 523.007 61.9924 523.225 64.1803L533.619 61.6639C537.732 59.476 541.34 55.757 544.446 50.5043C548.054 41.7524 547.584 36.1387 543.038 33.6575ZM111.848 28.9531L115.421 29.5015C117.226 29.7919 118.562 30.886 119.427 32.7834C119.789 33.8041 120.184 35.5903 120.619 38.1448L117.694 64.9459L110.225 89.5617C108.132 96.4161 106.254 101.376 104.594 104.438C101.923 109.397 98.35 113.19 93.8741 115.817C93.2266 116.181 92.2165 116.436 90.8436 116.583C89.5433 116.583 88.2456 116.363 86.9453 115.926L83.8073 114.284C79.6189 109.981 77.0209 104.766 76.0107 98.6393L72.9802 80.5901C72.0399 74.9736 68.9019 70.014 63.5582 65.7114C62.2605 65.3476 59.5524 69.8701 55.4392 79.2762C48.4378 95.1022 44.107 104.658 42.4466 107.94C40.2812 112.169 37.6107 114.322 34.4351 114.395C33.4948 114.395 32.4846 113.974 31.4019 113.135C30.3192 112.296 29.309 110.966 28.3714 109.142C25.9883 102.798 23.4629 93.6825 20.7924 81.7926C18.0493 69.5417 15.6674 60.6433 13.6465 55.1001L10.7232 47.0051C10.6509 46.2016 10.4704 45.2189 10.1818 44.0517V42.5207C10.1818 40.8431 10.6869 39.1654 11.6976 37.4878C11.9142 37.1946 12.4555 36.611 13.3217 35.7369L17.1112 32.7834L18.9518 32.455C22.8495 32.455 25.4832 37.3059 26.8561 47.0051C26.9287 47.7354 27.3612 52.2552 28.1538 60.57C28.949 69.1019 29.5266 74.4279 29.8866 76.5426C31.3293 84.4909 33.4599 88.5031 36.2754 88.5764C37.068 88.5764 37.9358 88.3212 38.8734 87.8109C40.6788 84.8927 43.3493 79.4228 46.8849 71.4011C50.0605 64.2536 53.0561 58.7838 55.8717 54.9915C59.3375 50.2491 62.4755 47.4069 65.291 46.4568L70.4897 44.7086C73.0876 44.7086 75.3605 47.4069 77.311 52.8035C78.6812 56.5225 81.1341 64.8373 84.6724 77.7451C87.7755 88.8315 89.8334 94.9937 90.8436 96.2342C91.6388 96.9645 92.3964 97.4748 93.1165 97.7652C96.2222 97.7652 99.1453 89.8169 101.888 73.9176C104.126 60.7898 105.244 50.906 105.244 44.2689C105.244 39.8929 104.884 37.086 104.161 35.8455C105.462 31.2524 108.022 28.9531 111.848 28.9531ZM147.153 28.2989C148.45 28.4428 149.606 29.7919 150.616 32.3464C151.844 35.6283 151.809 39.711 150.508 44.5973C150.148 46.2016 149.606 47.8793 148.886 49.6302L144.012 90.1074L144.88 98.0937C142.784 98.8239 140.928 99.5894 139.302 100.39C137.68 101.194 136.18 101.558 134.81 101.484C132.787 101.267 131.237 100.445 130.154 99.0221C129.072 97.6024 128.781 95.7972 129.287 93.6092C129.504 92.7324 129.864 91.8936 130.369 91.0928C131.452 68.8467 134.088 55.719 138.273 51.7095C137.696 42.0076 137.876 36.1007 138.816 33.986C141.487 29.9738 144.265 28.0791 147.153 28.2989ZM541.16 25.0387C549.954 25.0224 555.488 29.8653 557.764 39.5645C558.989 52.4018 553.54 62.4675 541.413 69.7588L537.407 71.0727C536.179 71.583 534.702 71.9468 532.969 72.1667L531.343 72.3838L530.586 72.7123H526.798C527.013 73.733 527.375 74.865 527.88 76.1055L528.205 76.6512C535.422 87.0073 545.024 88.6117 557.004 81.4641C558.016 81.1004 559.169 80.9185 560.469 80.9185C562.707 81.5021 564.62 82.9246 566.208 85.1858C566.568 87.7375 566.243 90.254 565.233 92.7324C558.881 97.692 553.433 100.1 548.884 99.9532L545.529 99.8446L538.815 101.484C533.979 100.757 530.153 98.4955 527.338 94.7032C524.522 90.9109 520.301 86.4237 514.67 81.247C509.184 65.0544 512 49.1931 523.117 33.6575C523.837 32.7834 524.92 31.798 526.365 30.7041L526.798 30.1584L528.205 29.3929L528.745 28.8446C530.118 27.9705 532.031 27.0937 534.484 26.2196L537.192 25.3428C538.581 25.1446 539.903 25.0414 541.16 25.0387ZM185.225 24.7618C188.263 24.8596 189.564 27.9705 189.121 34.0946L196.807 32.6749L197.35 32.455L199.19 32.0179H200.273C200.923 32.6748 201.463 33.5137 201.895 34.5343C202.401 38.0334 201.753 41.462 199.948 44.8172C198.575 45.618 196.807 46.2396 194.642 46.6767C192.909 47.1137 191.504 47.3336 190.421 47.3336C190.058 47.4775 189.553 47.5508 188.903 47.5508L188.363 48.2077C188.508 49.3017 188.47 50.5423 188.255 51.9267C188.325 52.8035 188.255 53.7862 188.038 54.8802V56.9596C187.893 57.8364 187.82 58.8924 187.82 60.1329L187.495 63.0864V65.1657C187.28 66.9872 187.173 68.521 187.173 69.7588L186.955 70.8528L186.737 73.8063L186.63 75.0116C186.63 76.396 186.412 78.2935 185.98 80.6986C185.907 83.3236 185.512 85.441 184.79 87.0453C181.469 94.1195 177.933 95.9057 174.18 92.4039C173.817 91.1661 173.637 89.7789 173.637 88.2479C173.855 87.1539 173.963 85.7667 173.963 84.0918L174.18 82.5581C174.25 81.1737 174.36 80.0064 174.503 79.059V78.1822L175.045 71.0727C175.333 69.9054 175.478 68.4097 175.478 66.5882L175.585 65.3829V63.0864L175.803 62.4295V60.7898L176.021 59.913V58.4906C176.093 57.3233 176.128 55.8303 176.128 54.0061C176.273 52.7655 176.346 51.2345 176.346 49.4103L176.561 45.3628C173.457 45.9465 170.894 45.9112 168.874 45.2542L163.353 45.8026L160.645 45.2542L158.805 44.4888L157.397 44.3802L156.096 43.3948C155.591 43.031 155.086 41.9723 154.581 40.2214C154.726 38.6904 155.266 37.3765 156.207 36.2825C156.927 35.118 157.649 34.4231 158.372 34.2059L160.105 34.3144L161.945 35.08L164.111 35.7369L176.886 36.5024C177.968 31.1058 180.279 27.2403 183.814 24.9057C184.32 24.7971 184.79 24.7483 185.225 24.7618ZM485.668 24.0995C504.687 24.0479 511.747 35.2184 506.852 57.6165C502.306 70.5977 492.417 76.8711 477.186 76.434C477.044 78.9124 477.366 82.1211 478.162 86.0599L478.487 87.4824C478.124 89.5238 477.044 91.2747 475.239 92.7324C466.937 95.8705 462.859 90.254 463.004 75.8857C452.249 75.5952 447.448 71.9848 448.603 65.0544C451.491 60.2415 456.362 59.1475 463.221 61.7725C463.221 51.5629 466.107 41.6819 471.883 32.1265L473.831 29.83L475.239 28.6247L476.214 27.642C478.162 26.1816 480.545 25.1256 483.358 24.4687L483.793 24.1402C484.43 24.1157 485.056 24.1022 485.668 24.0995ZM247.055 23.866C248.342 23.866 249.769 24.0316 251.337 24.3601C252.348 25.4541 253.035 26.6566 253.395 27.9705L253.178 29.3929V32.1265L252.855 32.5636L252.313 41.3154L252.095 42.9577L251.773 48.6448C251.628 48.7914 251.555 49.0845 251.555 49.5216L251.012 60.6785L250.797 61.3355V66.6968C257.581 66.8434 259.279 68.6296 255.886 72.0581C254.081 74.827 252.095 75.9589 249.93 75.4486L250.797 84.6375C252.168 91.8583 248.667 97.2196 240.295 100.719C238.345 100.865 236.577 100.355 234.989 99.1877L234.014 95.7971L235.422 81.247L236.397 76.1055L228.168 77.1995L219.506 77.4167L222.214 84.8574L223.622 89.0134C224.56 91.2014 224.667 93.4246 223.945 95.6859C223.152 97.4368 222.214 99.1144 221.132 100.719C218.531 102.106 215.573 102.396 212.252 101.596C211.675 101.012 211.062 99.7333 210.412 97.7652L210.087 96.0143L209.329 92.0755L209.112 90.3273L208.787 89.4505L208.247 84.4176L208.029 83.3236V81.4641C207.814 80.59 207.704 79.5313 207.704 78.2935C206.189 78.1469 204.638 77.5633 203.051 76.5426C202.543 72.7503 204.023 69.3218 207.489 66.2597V64.9459C207.489 63.7053 207.562 62.1743 207.704 60.3501V58.819L208.029 58.382V56.3026L208.572 53.132V52.2552L209.547 46.5681L209.869 45.0344L210.087 43.6146C210.087 43.031 210.267 42.2655 210.63 41.3154C210.845 40.5879 211.025 39.8577 211.17 39.1274L211.387 38.1448C211.747 37.2679 212.36 36.1387 213.228 34.7515L213.553 34.3144C215.428 32.1998 217.956 30.5575 221.132 29.3929C223.585 29.0997 225.605 29.83 227.193 31.5809C227.555 32.8187 227.123 33.8394 225.895 34.6429L226.435 37.1594L225.245 39.2387C224.667 40.4033 224.307 41.0982 224.162 41.3154C224.017 41.5353 223.622 42.5207 222.972 44.2689V45.9112C222.972 48.0259 222.72 49.7387 222.214 51.0526L220.807 66.2597C224.847 66.5502 228.095 66.6235 230.551 66.4769C231.776 66.6235 234.014 66.6235 237.262 66.4769C237.552 63.3416 237.697 61.0803 237.697 59.6958C239.573 49.1198 240.548 39.2387 240.621 30.0471C239.898 28.079 241.631 26.0377 245.816 23.923C246.214 23.885 246.625 23.866 247.055 23.866ZM452.612 18.6513C457.324 18.7544 459.524 21.6781 459.207 27.4221C458.557 28.8799 457.62 30.0851 456.392 31.0325C454.804 31.836 452.819 32.5636 450.438 33.2205C450.293 33.3671 450.022 33.5299 449.624 33.7118C449.229 33.8964 448.85 33.986 448.488 33.986L445.132 35.1886L444.267 35.6283L442.534 36.3938C441.092 36.8309 439.501 37.6317 437.771 38.799L436.796 39.2387C436 40.0395 435.208 41.0982 434.413 42.4094L434.198 46.8966L434.413 48.6448L435.93 54.1147C436.218 54.7716 436.436 55.6484 436.578 56.7424L437.336 58.7104L437.986 61.8838L438.528 62.7579C438.671 63.9252 438.996 65.1278 439.501 66.3683C439.501 67.389 439.719 68.4477 440.151 69.5417L440.369 71.1813L440.694 73.1521L440.909 74.3546L441.126 75.5572V79.9331L440.909 81.3556L440.694 82.9979L439.936 85.1858C434.883 93.8644 425.103 96.9264 410.593 94.3747C404.892 90.3625 404.999 86.0952 410.918 81.5755L414.924 81.3556C419.04 82.1591 423.153 81.684 427.269 79.9331C427.629 78.7658 427.736 77.5633 427.591 76.3227L424.021 62.101L423.696 61.1183L423.478 60.1329L423.26 59.1475L422.503 57.288L422.288 55.8656L421.095 50.5043L420.88 49.3017V47.4422L420.662 46.6767C420.662 45.4361 420.735 43.8318 420.88 41.8637V41.2068L421.313 39.2387L421.638 38.0335L422.288 36.3938C422.43 35.8835 422.755 35.2266 423.26 34.423L424.886 31.7981C430.804 26.1816 438.528 22.1721 448.055 19.7643L450.438 18.7789C451.215 18.6784 451.937 18.6377 452.612 18.6513ZM333.978 3.68304H349.461C350.617 5.28737 351.229 6.78311 351.302 8.16755C351.302 9.33482 347.946 11.2323 341.232 13.8573C334.158 16.5556 330.803 21.4799 331.163 28.6247L331.488 33.6575L332.138 51.2725L333.438 78.5107C333.798 86.535 334.881 94.3367 336.686 101.921C334.881 107.027 332.264 110.746 328.836 113.081C325.408 115.415 321.203 116.583 316.222 116.583C311.314 116.583 306.405 115.451 301.497 113.19C295.866 110.638 291.97 107.391 289.805 103.455C289.805 99.9532 290.922 98.167 293.16 98.0937C294.53 98.0204 298.321 99.8446 304.527 103.564C310.304 107.065 314.524 108.887 317.198 109.033C319.796 109.107 321.851 107.247 323.369 103.455C323.369 91.4213 322.864 77.2728 321.851 61.007C321.781 57.7251 321.456 52.5484 320.878 45.4741C320.373 41.6819 319.723 36.8309 318.928 30.9239V28.079C319.29 26.4014 320.156 23.5945 321.528 19.6557L311.134 19.7643H302.255C296.408 19.7643 293.485 19.1453 293.485 17.9048C293.485 17.2478 293.99 16.0806 295.001 14.4029L297.384 10.4668C301.787 7.11157 308.463 5.36066 317.412 5.21408C321.383 5.14078 324.161 5.07019 325.749 4.9969C329.647 4.77701 332.39 4.33997 333.978 3.68304Z" fill="black"/>
</mask>
<g mask="url(#mask0_3_168)">
<path fill-rule="evenodd" clip-rule="evenodd" d="M379.001 51.7095C375.358 51.981 372.827 56.3569 371.406 64.8373C369.89 73.8796 367.978 80.4082 365.667 84.4176L369.565 83.9806H371.948L378.227 84.966C379.31 85.1126 380.825 84.8574 382.776 84.2004C384.436 83.6901 386.671 82.4142 389.487 80.3702C389.272 75.5572 388.189 69.615 386.239 62.538C384.363 55.6837 382.81 52.1466 381.583 51.9267L380.392 51.7095H379.742C379.49 51.6905 379.243 51.6905 379.001 51.7095ZM602.147 47.7707C598.394 47.7707 594.17 49.7768 589.479 53.7862C584.571 58.0183 582.261 62.6113 582.551 67.5709L583.201 77.965C588.829 77.965 594.17 76.0675 599.224 72.2753C603.7 68.92 607.346 64.5088 610.158 59.0389C609.726 56.9243 608.788 54.663 607.346 52.2552C605.613 49.2664 603.88 47.7707 602.147 47.7707ZM379.409 39.7463C379.767 39.7491 380.132 39.7626 380.5 39.7843C385.193 40.0775 389.162 44.7792 392.41 53.8975C396.021 63.9605 398.221 71.8735 399.016 77.6366L403.995 112.424L403.129 114.832C402.769 115.926 402.28 116.71 401.668 117.183C401.055 117.658 400.424 117.967 399.774 118.114L398.148 118.222C397.066 118.149 396.308 118.005 395.876 117.785L394.035 117.128L394.36 112.752L394.685 108.485C395.118 104.109 394.774 100.846 393.656 98.6963C392.536 96.5437 390.029 95.3221 386.131 95.0316C375.086 94.2281 368.139 94.3557 365.288 95.4144C362.438 96.4704 360.127 98.9868 358.359 102.961C356.592 106.938 353.65 110.456 349.536 113.518L347.586 113.955H345.421C344.41 113.884 343.725 113.518 343.363 112.861C343.22 112.28 343.183 111.512 343.255 110.565C343.4 108.67 343.725 106.772 344.23 104.877C344.881 102.543 345.458 100.757 345.963 99.5162C347.766 95.6506 351.087 86.6056 355.923 72.3838C359.821 60.8631 363.539 52.2199 367.075 46.4568C369.917 41.9452 374.028 39.7083 379.409 39.7463ZM603.122 35.2998C607.38 35.2998 611.566 37.7593 615.682 42.6835C619.795 47.6051 621.888 52.2932 621.961 56.7424C622.033 63.9605 619.003 69.9407 612.867 74.6831L596.083 87.591L621.311 105.86C622.611 107.027 623.621 109.69 624.344 113.846C622.178 117.128 619.833 118.806 617.305 118.879C614.852 118.953 612.109 117.53 609.076 114.612L596.951 103.127C591.97 98.4574 587.387 94.7385 583.201 91.9669L584.283 119.865L577.355 122.818L572.481 116.143V70.9641C572.481 61.2622 575.152 53.0207 580.493 46.2396C586.196 38.9455 593.738 35.2998 603.122 35.2998ZM488.446 34.7515C487.508 34.9714 486.391 35.4817 485.09 36.2825C479.604 43.5033 476.681 52.437 476.321 63.0864C487.076 64.2536 493.68 59.951 496.135 50.1785C498.588 41.0602 496.025 35.9188 488.446 34.7515ZM543.038 33.6575C533.654 37.2327 527.41 45.3275 524.307 57.9449C523.37 59.913 523.007 61.9924 523.225 64.1803L533.619 61.6639C537.732 59.476 541.34 55.757 544.446 50.5043C548.054 41.7524 547.584 36.1387 543.038 33.6575ZM111.848 28.9531L115.421 29.5015C117.226 29.7919 118.562 30.886 119.427 32.7834C119.789 33.8041 120.184 35.5903 120.619 38.1448L117.694 64.9459L110.225 89.5617C108.132 96.4161 106.254 101.376 104.594 104.438C101.923 109.397 98.35 113.19 93.8741 115.817C93.2266 116.181 92.2165 116.436 90.8436 116.583C89.5433 116.583 88.2456 116.363 86.9453 115.926L83.8073 114.284C79.6189 109.981 77.0209 104.766 76.0107 98.6393L72.9802 80.5901C72.0399 74.9736 68.9019 70.014 63.5582 65.7114C62.2605 65.3476 59.5524 69.8701 55.4392 79.2762C48.4378 95.1022 44.107 104.658 42.4466 107.94C40.2812 112.169 37.6107 114.322 34.4351 114.395C33.4948 114.395 32.4846 113.974 31.4019 113.135C30.3192 112.296 29.309 110.966 28.3714 109.142C25.9883 102.798 23.4629 93.6825 20.7924 81.7926C18.0493 69.5417 15.6674 60.6433 13.6465 55.1001L10.7232 47.0051C10.6509 46.2016 10.4704 45.2189 10.1818 44.0517V42.5207C10.1818 40.8431 10.6869 39.1654 11.6976 37.4878C11.9142 37.1946 12.4555 36.611 13.3217 35.7369L17.1112 32.7834L18.9518 32.455C22.8495 32.455 25.4832 37.3059 26.8561 47.0051C26.9287 47.7354 27.3612 52.2552 28.1538 60.57C28.949 69.1019 29.5266 74.4279 29.8866 76.5426C31.3293 84.4909 33.4599 88.5031 36.2754 88.5764C37.068 88.5764 37.9358 88.3212 38.8734 87.8109C40.6788 84.8927 43.3493 79.4228 46.8849 71.4011C50.0605 64.2536 53.0561 58.7838 55.8717 54.9915C59.3375 50.2491 62.4755 47.4069 65.291 46.4568L70.4897 44.7086C73.0876 44.7086 75.3605 47.4069 77.311 52.8035C78.6812 56.5225 81.1341 64.8373 84.6724 77.7451C87.7755 88.8315 89.8334 94.9937 90.8436 96.2342C91.6388 96.9645 92.3964 97.4748 93.1165 97.7652C96.2222 97.7652 99.1453 89.8169 101.888 73.9176C104.126 60.7898 105.244 50.906 105.244 44.2689C105.244 39.8929 104.884 37.086 104.161 35.8455C105.462 31.2524 108.022 28.9531 111.848 28.9531ZM147.153 28.2989C148.45 28.4428 149.606 29.7919 150.616 32.3464C151.844 35.6283 151.809 39.711 150.508 44.5973C150.148 46.2016 149.606 47.8793 148.886 49.6302L144.012 90.1074L144.88 98.0937C142.784 98.8239 140.928 99.5894 139.302 100.39C137.68 101.194 136.18 101.558 134.81 101.484C132.787 101.267 131.237 100.445 130.154 99.0221C129.072 97.6024 128.781 95.7972 129.287 93.6092C129.504 92.7324 129.864 91.8936 130.369 91.0928C131.452 68.8467 134.088 55.719 138.273 51.7095C137.696 42.0076 137.876 36.1007 138.816 33.986C141.487 29.9738 144.265 28.0791 147.153 28.2989ZM541.16 25.0387C549.954 25.0224 555.488 29.8653 557.764 39.5645C558.989 52.4018 553.54 62.4675 541.413 69.7588L537.407 71.0727C536.179 71.583 534.702 71.9468 532.969 72.1667L531.343 72.3838L530.586 72.7123H526.798C527.013 73.733 527.375 74.865 527.88 76.1055L528.205 76.6512C535.422 87.0073 545.024 88.6117 557.004 81.4641C558.016 81.1004 559.169 80.9185 560.469 80.9185C562.707 81.5021 564.62 82.9246 566.208 85.1858C566.568 87.7375 566.243 90.254 565.233 92.7324C558.881 97.692 553.433 100.1 548.884 99.9532L545.529 99.8446L538.815 101.484C533.979 100.757 530.153 98.4955 527.338 94.7032C524.522 90.9109 520.301 86.4237 514.67 81.247C509.184 65.0544 512 49.1931 523.117 33.6575C523.837 32.7834 524.92 31.798 526.365 30.7041L526.798 30.1584L528.205 29.3929L528.745 28.8446C530.118 27.9705 532.031 27.0937 534.484 26.2196L537.192 25.3428C538.581 25.1446 539.903 25.0414 541.16 25.0387ZM185.225 24.7618C188.263 24.8596 189.564 27.9705 189.121 34.0946L196.807 32.6749L197.35 32.455L199.19 32.0179H200.273C200.923 32.6748 201.463 33.5137 201.895 34.5343C202.401 38.0334 201.753 41.462 199.948 44.8172C198.575 45.618 196.807 46.2396 194.642 46.6767C192.909 47.1137 191.504 47.3336 190.421 47.3336C190.058 47.4775 189.553 47.5508 188.903 47.5508L188.363 48.2077C188.508 49.3017 188.47 50.5423 188.255 51.9267C188.325 52.8035 188.255 53.7862 188.038 54.8802V56.9596C187.893 57.8364 187.82 58.8924 187.82 60.1329L187.495 63.0864V65.1657C187.28 66.9872 187.173 68.521 187.173 69.7588L186.955 70.8528L186.737 73.8063L186.63 75.0116C186.63 76.396 186.412 78.2935 185.98 80.6986C185.907 83.3236 185.512 85.441 184.79 87.0453C181.469 94.1195 177.933 95.9057 174.18 92.4039C173.817 91.1661 173.637 89.7789 173.637 88.2479C173.855 87.1539 173.963 85.7667 173.963 84.0918L174.18 82.5581C174.25 81.1737 174.36 80.0064 174.503 79.059V78.1822L175.045 71.0727C175.333 69.9054 175.478 68.4097 175.478 66.5882L175.585 65.3829V63.0864L175.803 62.4295V60.7898L176.021 59.913V58.4906C176.093 57.3233 176.128 55.8303 176.128 54.0061C176.273 52.7655 176.346 51.2345 176.346 49.4103L176.561 45.3628C173.457 45.9465 170.894 45.9112 168.874 45.2542L163.353 45.8026L160.645 45.2542L158.805 44.4888L157.397 44.3802L156.096 43.3948C155.591 43.031 155.086 41.9723 154.581 40.2214C154.726 38.6904 155.266 37.3765 156.207 36.2825C156.927 35.118 157.649 34.4231 158.372 34.2059L160.105 34.3144L161.945 35.08L164.111 35.7369L176.886 36.5024C177.968 31.1058 180.279 27.2403 183.814 24.9057C184.32 24.7971 184.79 24.7483 185.225 24.7618ZM485.668 24.0995C504.687 24.0479 511.747 35.2184 506.852 57.6165C502.306 70.5977 492.417 76.8711 477.186 76.434C477.044 78.9124 477.366 82.1211 478.162 86.0599L478.487 87.4824C478.124 89.5238 477.044 91.2747 475.239 92.7324C466.937 95.8705 462.859 90.254 463.004 75.8857C452.249 75.5952 447.448 71.9848 448.603 65.0544C451.491 60.2415 456.362 59.1475 463.221 61.7725C463.221 51.5629 466.107 41.6819 471.883 32.1265L473.831 29.83L475.239 28.6247L476.214 27.642C478.162 26.1816 480.545 25.1256 483.358 24.4687L483.793 24.1402C484.43 24.1157 485.056 24.1022 485.668 24.0995ZM247.055 23.866C248.342 23.866 249.769 24.0316 251.337 24.3601C252.348 25.4541 253.035 26.6566 253.395 27.9705L253.178 29.3929V32.1265L252.855 32.5636L252.313 41.3154L252.095 42.9577L251.773 48.6448C251.628 48.7914 251.555 49.0845 251.555 49.5216L251.012 60.6785L250.797 61.3355V66.6968C257.581 66.8434 259.279 68.6296 255.886 72.0581C254.081 74.827 252.095 75.9589 249.93 75.4486L250.797 84.6375C252.168 91.8583 248.667 97.2196 240.295 100.719C238.345 100.865 236.577 100.355 234.989 99.1877L234.014 95.7971L235.422 81.247L236.397 76.1055L228.168 77.1995L219.506 77.4167L222.214 84.8574L223.622 89.0134C224.56 91.2014 224.667 93.4246 223.945 95.6859C223.152 97.4368 222.214 99.1144 221.132 100.719C218.531 102.106 215.573 102.396 212.252 101.596C211.675 101.012 211.062 99.7333 210.412 97.7652L210.087 96.0143L209.329 92.0755L209.112 90.3273L208.787 89.4505L208.247 84.4176L208.029 83.3236V81.4641C207.814 80.59 207.704 79.5313 207.704 78.2935C206.189 78.1469 204.638 77.5633 203.051 76.5426C202.543 72.7503 204.023 69.3218 207.489 66.2597V64.9459C207.489 63.7053 207.562 62.1743 207.704 60.3501V58.819L208.029 58.382V56.3026L208.572 53.132V52.2552L209.547 46.5681L209.869 45.0344L210.087 43.6146C210.087 43.031 210.267 42.2655 210.63 41.3154C210.845 40.5879 211.025 39.8577 211.17 39.1274L211.387 38.1448C211.747 37.2679 212.36 36.1387 213.228 34.7515L213.553 34.3144C215.428 32.1998 217.956 30.5575 221.132 29.3929C223.585 29.0997 225.605 29.83 227.193 31.5809C227.555 32.8187 227.123 33.8394 225.895 34.6429L226.435 37.1594L225.245 39.2387C224.667 40.4033 224.307 41.0982 224.162 41.3154C224.017 41.5353 223.622 42.5207 222.972 44.2689V45.9112C222.972 48.0259 222.72 49.7387 222.214 51.0526L220.807 66.2597C224.847 66.5502 228.095 66.6235 230.551 66.4769C231.776 66.6235 234.014 66.6235 237.262 66.4769C237.552 63.3416 237.697 61.0803 237.697 59.6958C239.573 49.1198 240.548 39.2387 240.621 30.0471C239.898 28.079 241.631 26.0377 245.816 23.923C246.214 23.885 246.625 23.866 247.055 23.866ZM452.612 18.6513C457.324 18.7544 459.524 21.6781 459.207 27.4221C458.557 28.8799 457.62 30.0851 456.392 31.0325C454.804 31.836 452.819 32.5636 450.438 33.2205C450.293 33.3671 450.022 33.5299 449.624 33.7118C449.229 33.8964 448.85 33.986 448.488 33.986L445.132 35.1886L444.267 35.6283L442.534 36.3938C441.092 36.8309 439.501 37.6317 437.771 38.799L436.796 39.2387C436 40.0395 435.208 41.0982 434.413 42.4094L434.198 46.8966L434.413 48.6448L435.93 54.1147C436.218 54.7716 436.436 55.6484 436.578 56.7424L437.336 58.7104L437.986 61.8838L438.528 62.7579C438.671 63.9252 438.996 65.1278 439.501 66.3683C439.501 67.389 439.719 68.4477 440.151 69.5417L440.369 71.1813L440.694 73.1521L440.909 74.3546L441.126 75.5572V79.9331L440.909 81.3556L440.694 82.9979L439.936 85.1858C434.883 93.8644 425.103 96.9264 410.593 94.3747C404.892 90.3625 404.999 86.0952 410.918 81.5755L414.924 81.3556C419.04 82.1591 423.153 81.684 427.269 79.9331C427.629 78.7658 427.736 77.5633 427.591 76.3227L424.021 62.101L423.696 61.1183L423.478 60.1329L423.26 59.1475L422.503 57.288L422.288 55.8656L421.095 50.5043L420.88 49.3017V47.4422L420.662 46.6767C420.662 45.4361 420.735 43.8318 420.88 41.8637V41.2068L421.313 39.2387L421.638 38.0335L422.288 36.3938C422.43 35.8835 422.755 35.2266 423.26 34.423L424.886 31.7981C430.804 26.1816 438.528 22.1721 448.055 19.7643L450.438 18.7789C451.215 18.6784 451.937 18.6377 452.612 18.6513ZM333.978 3.68304H349.461C350.617 5.28737 351.229 6.78311 351.302 8.16755C351.302 9.33482 347.946 11.2323 341.232 13.8573C334.158 16.5556 330.803 21.4799 331.163 28.6247L331.488 33.6575L332.138 51.2725L333.438 78.5107C333.798 86.535 334.881 94.3367 336.686 101.921C334.881 107.027 332.264 110.746 328.836 113.081C325.408 115.415 321.203 116.583 316.222 116.583C311.314 116.583 306.405 115.451 301.497 113.19C295.866 110.638 291.97 107.391 289.805 103.455C289.805 99.9532 290.922 98.167 293.16 98.0937C294.53 98.0204 298.321 99.8446 304.527 103.564C310.304 107.065 314.524 108.887 317.198 109.033C319.796 109.107 321.851 107.247 323.369 103.455C323.369 91.4213 322.864 77.2728 321.851 61.007C321.781 57.7251 321.456 52.5484 320.878 45.4741C320.373 41.6819 319.723 36.8309 318.928 30.9239V28.079C319.29 26.4014 320.156 23.5945 321.528 19.6557L311.134 19.7643H302.255C296.408 19.7643 293.485 19.1453 293.485 17.9048C293.485 17.2478 293.99 16.0806 295.001 14.4029L297.384 10.4668C301.787 7.11157 308.463 5.36066 317.412 5.21408C321.383 5.14078 324.161 5.07019 325.749 4.9969C329.647 4.77701 332.39 4.33997 333.978 3.68304Z" stroke="#231F20" stroke-width="6" stroke-miterlimit="10" stroke-linejoin="round"/>
</g>
<mask id="mask1_3_168" style="mask-type:alpha" maskUnits="userSpaceOnUse" x="10" y="3" width="615" height="120">
<path fill-rule="evenodd" clip-rule="evenodd" d="M379.001 51.7095C375.358 51.981 372.827 56.3569 371.406 64.8373C369.89 73.8796 367.978 80.4082 365.667 84.4176L369.565 83.9806H371.948L378.227 84.966C379.31 85.1126 380.825 84.8574 382.776 84.2004C384.436 83.6901 386.671 82.4142 389.487 80.3702C389.272 75.5572 388.189 69.615 386.239 62.538C384.363 55.6837 382.81 52.1466 381.583 51.9267L380.392 51.7095H379.742C379.49 51.6905 379.243 51.6905 379.001 51.7095ZM602.147 47.7707C598.394 47.7707 594.17 49.7768 589.479 53.7862C584.571 58.0183 582.261 62.6113 582.551 67.5709L583.201 77.965C588.829 77.965 594.17 76.0675 599.224 72.2753C603.7 68.92 607.346 64.5088 610.158 59.0389C609.726 56.9243 608.788 54.663 607.346 52.2552C605.613 49.2664 603.88 47.7707 602.147 47.7707ZM379.409 39.7463C379.767 39.7491 380.132 39.7626 380.5 39.7843C385.193 40.0775 389.162 44.7792 392.41 53.8975C396.021 63.9605 398.221 71.8735 399.016 77.6366L403.995 112.424L403.129 114.832C402.769 115.926 402.28 116.71 401.668 117.183C401.055 117.658 400.424 117.967 399.774 118.114L398.148 118.222C397.066 118.149 396.308 118.005 395.876 117.785L394.035 117.128L394.36 112.752L394.685 108.485C395.118 104.109 394.774 100.846 393.656 98.6963C392.536 96.5437 390.029 95.3221 386.131 95.0316C375.086 94.2281 368.139 94.3557 365.288 95.4144C362.438 96.4704 360.127 98.9868 358.359 102.961C356.592 106.938 353.65 110.456 349.536 113.518L347.586 113.955H345.421C344.41 113.884 343.725 113.518 343.363 112.861C343.22 112.28 343.183 111.512 343.255 110.565C343.4 108.67 343.725 106.772 344.23 104.877C344.881 102.543 345.458 100.757 345.963 99.5162C347.766 95.6506 351.087 86.6056 355.923 72.3838C359.821 60.8631 363.539 52.2199 367.075 46.4568C369.917 41.9452 374.028 39.7083 379.409 39.7463ZM603.122 35.2998C607.38 35.2998 611.566 37.7593 615.682 42.6835C619.795 47.6051 621.888 52.2932 621.961 56.7424C622.033 63.9605 619.003 69.9407 612.867 74.6831L596.083 87.591L621.311 105.86C622.611 107.027 623.621 109.69 624.344 113.846C622.178 117.128 619.833 118.806 617.305 118.879C614.852 118.953 612.109 117.53 609.076 114.612L596.951 103.127C591.97 98.4574 587.387 94.7385 583.201 91.9669L584.283 119.865L577.355 122.818L572.481 116.143V70.9641C572.481 61.2622 575.152 53.0207 580.493 46.2396C586.196 38.9455 593.738 35.2998 603.122 35.2998ZM488.446 34.7515C487.508 34.9714 486.391 35.4817 485.09 36.2825C479.604 43.5033 476.681 52.437 476.321 63.0864C487.076 64.2536 493.68 59.951 496.135 50.1785C498.588 41.0602 496.025 35.9188 488.446 34.7515ZM543.038 33.6575C533.654 37.2327 527.41 45.3275 524.307 57.9449C523.37 59.913 523.007 61.9924 523.225 64.1803L533.619 61.6639C537.732 59.476 541.34 55.757 544.446 50.5043C548.054 41.7524 547.584 36.1387 543.038 33.6575ZM111.848 28.9531L115.421 29.5015C117.226 29.7919 118.562 30.886 119.427 32.7834C119.789 33.8041 120.184 35.5903 120.619 38.1448L117.694 64.9459L110.225 89.5617C108.132 96.4161 106.254 101.376 104.594 104.438C101.923 109.397 98.35 113.19 93.8741 115.817C93.2266 116.181 92.2165 116.436 90.8436 116.583C89.5433 116.583 88.2456 116.363 86.9453 115.926L83.8073 114.284C79.6189 109.981 77.0209 104.766 76.0107 98.6393L72.9802 80.5901C72.0399 74.9736 68.9019 70.014 63.5582 65.7114C62.2605 65.3476 59.5524 69.8701 55.4392 79.2762C48.4378 95.1022 44.107 104.658 42.4466 107.94C40.2812 112.169 37.6107 114.322 34.4351 114.395C33.4948 114.395 32.4846 113.974 31.4019 113.135C30.3192 112.296 29.309 110.966 28.3714 109.142C25.9883 102.798 23.4629 93.6825 20.7924 81.7926C18.0493 69.5417 15.6674 60.6433 13.6465 55.1001L10.7232 47.0051C10.6509 46.2016 10.4704 45.2189 10.1818 44.0517V42.5207C10.1818 40.8431 10.6869 39.1654 11.6976 37.4878C11.9142 37.1946 12.4555 36.611 13.3217 35.7369L17.1112 32.7834L18.9518 32.455C22.8495 32.455 25.4832 37.3059 26.8561 47.0051C26.9287 47.7354 27.3612 52.2552 28.1538 60.57C28.949 69.1019 29.5266 74.4279 29.8866 76.5426C31.3293 84.4909 33.4599 88.5031 36.2754 88.5764C37.068 88.5764 37.9358 88.3212 38.8734 87.8109C40.6788 84.8927 43.3493 79.4228 46.8849 71.4011C50.0605 64.2536 53.0561 58.7838 55.8717 54.9915C59.3375 50.2491 62.4755 47.4069 65.291 46.4568L70.4897 44.7086C73.0876 44.7086 75.3605 47.4069 77.311 52.8035C78.6812 56.5225 81.1341 64.8373 84.6724 77.7451C87.7755 88.8315 89.8334 94.9937 90.8436 96.2342C91.6388 96.9645 92.3964 97.4748 93.1165 97.7652C96.2222 97.7652 99.1453 89.8169 101.888 73.9176C104.126 60.7898 105.244 50.906 105.244 44.2689C105.244 39.8929 104.884 37.086 104.161 35.8455C105.462 31.2524 108.022 28.9531 111.848 28.9531ZM147.153 28.2989C148.45 28.4428 149.606 29.7919 150.616 32.3464C151.844 35.6283 151.809 39.711 150.508 44.5973C150.148 46.2016 149.606 47.8793 148.886 49.6302L144.012 90.1074L144.88 98.0937C142.784 98.8239 140.928 99.5894 139.302 100.39C137.68 101.194 136.18 101.558 134.81 101.484C132.787 101.267 131.237 100.445 130.154 99.0221C129.072 97.6024 128.781 95.7972 129.287 93.6092C129.504 92.7324 129.864 91.8936 130.369 91.0928C131.452 68.8467 134.088 55.719 138.273 51.7095C137.696 42.0076 137.876 36.1007 138.816 33.986C141.487 29.9738 144.265 28.0791 147.153 28.2989ZM541.16 25.0387C549.954 25.0224 555.488 29.8653 557.764 39.5645C558.989 52.4018 553.54 62.4675 541.413 69.7588L537.407 71.0727C536.179 71.583 534.702 71.9468 532.969 72.1667L531.343 72.3838L530.586 72.7123H526.798C527.013 73.733 527.375 74.865 527.88 76.1055L528.205 76.6512C535.422 87.0073 545.024 88.6117 557.004 81.4641C558.016 81.1004 559.169 80.9185 560.469 80.9185C562.707 81.5021 564.62 82.9246 566.208 85.1858C566.568 87.7375 566.243 90.254 565.233 92.7324C558.881 97.692 553.433 100.1 548.884 99.9532L545.529 99.8446L538.815 101.484C533.979 100.757 530.153 98.4955 527.338 94.7032C524.522 90.9109 520.301 86.4237 514.67 81.247C509.184 65.0544 512 49.1931 523.117 33.6575C523.837 32.7834 524.92 31.798 526.365 30.7041L526.798 30.1584L528.205 29.3929L528.745 28.8446C530.118 27.9705 532.031 27.0937 534.484 26.2196L537.192 25.3428C538.581 25.1446 539.903 25.0414 541.16 25.0387ZM185.225 24.7618C188.263 24.8596 189.564 27.9705 189.121 34.0946L196.807 32.6749L197.35 32.455L199.19 32.0179H200.273C200.923 32.6748 201.463 33.5137 201.895 34.5343C202.401 38.0334 201.753 41.462 199.948 44.8172C198.575 45.618 196.807 46.2396 194.642 46.6767C192.909 47.1137 191.504 47.3336 190.421 47.3336C190.058 47.4775 189.553 47.5508 188.903 47.5508L188.363 48.2077C188.508 49.3017 188.47 50.5423 188.255 51.9267C188.325 52.8035 188.255 53.7862 188.038 54.8802V56.9596C187.893 57.8364 187.82 58.8924 187.82 60.1329L187.495 63.0864V65.1657C187.28 66.9872 187.173 68.521 187.173 69.7588L186.955 70.8528L186.737 73.8063L186.63 75.0116C186.63 76.396 186.412 78.2935 185.98 80.6986C185.907 83.3236 185.512 85.441 184.79 87.0453C181.469 94.1195 177.933 95.9057 174.18 92.4039C173.817 91.1661 173.637 89.7789 173.637 88.2479C173.855 87.1539 173.963 85.7667 173.963 84.0918L174.18 82.5581C174.25 81.1737 174.36 80.0064 174.503 79.059V78.1822L175.045 71.0727C175.333 69.9054 175.478 68.4097 175.478 66.5882L175.585 65.3829V63.0864L175.803 62.4295V60.7898L176.021 59.913V58.4906C176.093 57.3233 176.128 55.8303 176.128 54.0061C176.273 52.7655 176.346 51.2345 176.346 49.4103L176.561 45.3628C173.457 45.9465 170.894 45.9112 168.874 45.2542L163.353 45.8026L160.645 45.2542L158.805 44.4888L157.397 44.3802L156.096 43.3948C155.591 43.031 155.086 41.9723 154.581 40.2214C154.726 38.6904 155.266 37.3765 156.207 36.2825C156.927 35.118 157.649 34.4231 158.372 34.2059L160.105 34.3144L161.945 35.08L164.111 35.7369L176.886 36.5024C177.968 31.1058 180.279 27.2403 183.814 24.9057C184.32 24.7971 184.79 24.7483 185.225 24.7618ZM485.668 24.0995C504.687 24.0479 511.747 35.2184 506.852 57.6165C502.306 70.5977 492.417 76.8711 477.186 76.434C477.044 78.9124 477.366 82.1211 478.162 86.0599L478.487 87.4824C478.124 89.5238 477.044 91.2747 475.239 92.7324C466.937 95.8705 462.859 90.254 463.004 75.8857C452.249 75.5952 447.448 71.9848 448.603 65.0544C451.491 60.2415 456.362 59.1475 463.221 61.7725C463.221 51.5629 466.107 41.6819 471.883 32.1265L473.831 29.83L475.239 28.6247L476.214 27.642C478.162 26.1816 480.545 25.1256 483.358 24.4687L483.793 24.1402C484.43 24.1157 485.056 24.1022 485.668 24.0995ZM247.055 23.866C248.342 23.866 249.769 24.0316 251.337 24.3601C252.348 25.4541 253.035 26.6566 253.395 27.9705L253.178 29.3929V32.1265L252.855 32.5636L252.313 41.3154L252.095 42.9577L251.773 48.6448C251.628 48.7914 251.555 49.0845 251.555 49.5216L251.012 60.6785L250.797 61.3355V66.6968C257.581 66.8434 259.279 68.6296 255.886 72.0581C254.081 74.827 252.095 75.9589 249.93 75.4486L250.797 84.6375C252.168 91.8583 248.667 97.2196 240.295 100.719C238.345 100.865 236.577 100.355 234.989 99.1877L234.014 95.7971L235.422 81.247L236.397 76.1055L228.168 77.1995L219.506 77.4167L222.214 84.8574L223.622 89.0134C224.56 91.2014 224.667 93.4246 223.945 95.6859C223.152 97.4368 222.214 99.1144 221.132 100.719C218.531 102.106 215.573 102.396 212.252 101.596C211.675 101.012 211.062 99.7333 210.412 97.7652L210.087 96.0143L209.329 92.0755L209.112 90.3273L208.787 89.4505L208.247 84.4176L208.029 83.3236V81.4641C207.814 80.59 207.704 79.5313 207.704 78.2935C206.189 78.1469 204.638 77.5633 203.051 76.5426C202.543 72.7503 204.023 69.3218 207.489 66.2597V64.9459C207.489 63.7053 207.562 62.1743 207.704 60.3501V58.819L208.029 58.382V56.3026L208.572 53.132V52.2552L209.547 46.5681L209.869 45.0344L210.087 43.6146C210.087 43.031 210.267 42.2655 210.63 41.3154C210.845 40.5879 211.025 39.8577 211.17 39.1274L211.387 38.1448C211.747 37.2679 212.36 36.1387 213.228 34.7515L213.553 34.3144C215.428 32.1998 217.956 30.5575 221.132 29.3929C223.585 29.0997 225.605 29.83 227.193 31.5809C227.555 32.8187 227.123 33.8394 225.895 34.6429L226.435 37.1594L225.245 39.2387C224.667 40.4033 224.307 41.0982 224.162 41.3154C224.017 41.5353 223.622 42.5207 222.972 44.2689V45.9112C222.972 48.0259 222.72 49.7387 222.214 51.0526L220.807 66.2597C224.847 66.5502 228.095 66.6235 230.551 66.4769C231.776 66.6235 234.014 66.6235 237.262 66.4769C237.552 63.3416 237.697 61.0803 237.697 59.6958C239.573 49.1198 240.548 39.2387 240.621 30.0471C239.898 28.079 241.631 26.0377 245.816 23.923C246.214 23.885 246.625 23.866 247.055 23.866ZM452.612 18.6513C457.324 18.7544 459.524 21.6781 459.207 27.4221C458.557 28.8799 457.62 30.0851 456.392 31.0325C454.804 31.836 452.819 32.5636 450.438 33.2205C450.293 33.3671 450.022 33.5299 449.624 33.7118C449.229 33.8964 448.85 33.986 448.488 33.986L445.132 35.1886L444.267 35.6283L442.534 36.3938C441.092 36.8309 439.501 37.6317 437.771 38.799L436.796 39.2387C436 40.0395 435.208 41.0982 434.413 42.4094L434.198 46.8966L434.413 48.6448L435.93 54.1147C436.218 54.7716 436.436 55.6484 436.578 56.7424L437.336 58.7104L437.986 61.8838L438.528 62.7579C438.671 63.9252 438.996 65.1278 439.501 66.3683C439.501 67.389 439.719 68.4477 440.151 69.5417L440.369 71.1813L440.694 73.1521L440.909 74.3546L441.126 75.5572V79.9331L440.909 81.3556L440.694 82.9979L439.936 85.1858C434.883 93.8644 425.103 96.9264 410.593 94.3747C404.892 90.3625 404.999 86.0952 410.918 81.5755L414.924 81.3556C419.04 82.1591 423.153 81.684 427.269 79.9331C427.629 78.7658 427.736 77.5633 427.591 76.3227L424.021 62.101L423.696 61.1183L423.478 60.1329L423.26 59.1475L422.503 57.288L422.288 55.8656L421.095 50.5043L420.88 49.3017V47.4422L420.662 46.6767C420.662 45.4361 420.735 43.8318 420.88 41.8637V41.2068L421.313 39.2387L421.638 38.0335L422.288 36.3938C422.43 35.8835 422.755 35.2266 423.26 34.423L424.886 31.7981C430.804 26.1816 438.528 22.1721 448.055 19.7643L450.438 18.7789C451.215 18.6784 451.937 18.6377 452.612 18.6513ZM333.978 3.68304H349.461C350.617 5.28737 351.229 6.78311 351.302 8.16755C351.302 9.33482 347.946 11.2323 341.232 13.8573C334.158 16.5556 330.803 21.4799 331.163 28.6247L331.488 33.6575L332.138 51.2725L333.438 78.5107C333.798 86.535 334.881 94.3367 336.686 101.921C334.881 107.027 332.264 110.746 328.836 113.081C325.408 115.415 321.203 116.583 316.222 116.583C311.314 116.583 306.405 115.451 301.497 113.19C295.866 110.638 291.97 107.391 289.805 103.455C289.805 99.9532 290.922 98.167 293.16 98.0937C294.53 98.0204 298.321 99.8446 304.527 103.564C310.304 107.065 314.524 108.887 317.198 109.033C319.796 109.107 321.851 107.247 323.369 103.455C323.369 91.4213 322.864 77.2728 321.851 61.007C321.781 57.7251 321.456 52.5484 320.878 45.4741C320.373 41.6819 319.723 36.8309 318.928 30.9239V28.079C319.29 26.4014 320.156 23.5945 321.528 19.6557L311.134 19.7643H302.255C296.408 19.7643 293.485 19.1453 293.485 17.9048C293.485 17.2478 293.99 16.0806 295.001 14.4029L297.384 10.4668C301.787 7.11157 308.463 5.36066 317.412 5.21408C321.383 5.14078 324.161 5.07019 325.749 4.9969C329.647 4.77701 332.39 4.33997 333.978 3.68304Z" fill="white"/>
</mask>
<g mask="url(#mask1_3_168)">
<path fill-rule="evenodd" clip-rule="evenodd" d="M379.001 51.7095C375.358 51.981 372.827 56.3569 371.406 64.8373C369.89 73.8796 367.978 80.4082 365.667 84.4176L369.565 83.9806H371.948L378.227 84.966C379.31 85.1126 380.825 84.8574 382.776 84.2004C384.436 83.6901 386.671 82.4142 389.487 80.3702C389.272 75.5572 388.189 69.615 386.239 62.538C384.363 55.6837 382.81 52.1466 381.583 51.9267L380.392 51.7095H379.742C379.49 51.6905 379.243 51.6905 379.001 51.7095ZM602.147 47.7707C598.394 47.7707 594.17 49.7768 589.479 53.7862C584.571 58.0183 582.261 62.6113 582.551 67.5709L583.201 77.965C588.829 77.965 594.17 76.0675 599.224 72.2753C603.7 68.92 607.346 64.5088 610.158 59.0389C609.726 56.9243 608.788 54.663 607.346 52.2552C605.613 49.2664 603.88 47.7707 602.147 47.7707ZM379.409 39.7463C379.767 39.7491 380.132 39.7626 380.5 39.7843C385.193 40.0775 389.162 44.7792 392.41 53.8975C396.021 63.9605 398.221 71.8735 399.016 77.6366L403.995 112.424L403.129 114.832C402.769 115.926 402.28 116.71 401.668 117.183C401.055 117.658 400.424 117.967 399.774 118.114L398.148 118.222C397.066 118.149 396.308 118.005 395.876 117.785L394.035 117.128L394.36 112.752L394.685 108.485C395.118 104.109 394.774 100.846 393.656 98.6963C392.536 96.5437 390.029 95.3221 386.131 95.0316C375.086 94.2281 368.139 94.3557 365.288 95.4144C362.438 96.4704 360.127 98.9868 358.359 102.961C356.592 106.938 353.65 110.456 349.536 113.518L347.586 113.955H345.421C344.41 113.884 343.725 113.518 343.363 112.861C343.22 112.28 343.183 111.512 343.255 110.565C343.4 108.67 343.725 106.772 344.23 104.877C344.881 102.543 345.458 100.757 345.963 99.5162C347.766 95.6506 351.087 86.6056 355.923 72.3838C359.821 60.8631 363.539 52.2199 367.075 46.4568C369.917 41.9452 374.028 39.7083 379.409 39.7463ZM603.122 35.2998C607.38 35.2998 611.566 37.7593 615.682 42.6835C619.795 47.6051 621.888 52.2932 621.961 56.7424C622.033 63.9605 619.003 69.9407 612.867 74.6831L596.083 87.591L621.311 105.86C622.611 107.027 623.621 109.69 624.344 113.846C622.178 117.128 619.833 118.806 617.305 118.879C614.852 118.953 612.109 117.53 609.076 114.612L596.951 103.127C591.97 98.4574 587.387 94.7385 583.201 91.9669L584.283 119.865L577.355 122.818L572.481 116.143V70.9641C572.481 61.2622 575.152 53.0207 580.493 46.2396C586.196 38.9455 593.738 35.2998 603.122 35.2998ZM488.446 34.7515C487.508 34.9714 486.391 35.4817 485.09 36.2825C479.604 43.5033 476.681 52.437 476.321 63.0864C487.076 64.2536 493.68 59.951 496.135 50.1785C498.588 41.0602 496.025 35.9188 488.446 34.7515ZM543.038 33.6575C533.654 37.2327 527.41 45.3275 524.307 57.9449C523.37 59.913 523.007 61.9924 523.225 64.1803L533.619 61.6639C537.732 59.476 541.34 55.757 544.446 50.5043C548.054 41.7524 547.584 36.1387 543.038 33.6575ZM111.848 28.9531L115.421 29.5015C117.226 29.7919 118.562 30.886 119.427 32.7834C119.789 33.8041 120.184 35.5903 120.619 38.1448L117.694 64.9459L110.225 89.5617C108.132 96.4161 106.254 101.376 104.594 104.438C101.923 109.397 98.35 113.19 93.8741 115.817C93.2266 116.181 92.2165 116.436 90.8436 116.583C89.5433 116.583 88.2456 116.363 86.9453 115.926L83.8073 114.284C79.6189 109.981 77.0209 104.766 76.0107 98.6393L72.9802 80.5901C72.0399 74.9736 68.9019 70.014 63.5582 65.7114C62.2605 65.3476 59.5524 69.8701 55.4392 79.2762C48.4378 95.1022 44.107 104.658 42.4466 107.94C40.2812 112.169 37.6107 114.322 34.4351 114.395C33.4948 114.395 32.4846 113.974 31.4019 113.135C30.3192 112.296 29.309 110.966 28.3714 109.142C25.9883 102.798 23.4629 93.6825 20.7924 81.7926C18.0493 69.5417 15.6674 60.6433 13.6465 55.1001L10.7232 47.0051C10.6509 46.2016 10.4704 45.2189 10.1818 44.0517V42.5207C10.1818 40.8431 10.6869 39.1654 11.6976 37.4878C11.9142 37.1946 12.4555 36.611 13.3217 35.7369L17.1112 32.7834L18.9518 32.455C22.8495 32.455 25.4832 37.3059 26.8561 47.0051C26.9287 47.7354 27.3612 52.2552 28.1538 60.57C28.949 69.1019 29.5266 74.4279 29.8866 76.5426C31.3293 84.4909 33.4599 88.5031 36.2754 88.5764C37.068 88.5764 37.9358 88.3212 38.8734 87.8109C40.6788 84.8927 43.3493 79.4228 46.8849 71.4011C50.0605 64.2536 53.0561 58.7838 55.8717 54.9915C59.3375 50.2491 62.4755 47.4069 65.291 46.4568L70.4897 44.7086C73.0876 44.7086 75.3605 47.4069 77.311 52.8035C78.6812 56.5225 81.1341 64.8373 84.6724 77.7451C87.7755 88.8315 89.8334 94.9937 90.8436 96.2342C91.6388 96.9645 92.3964 97.4748 93.1165 97.7652C96.2222 97.7652 99.1453 89.8169 101.888 73.9176C104.126 60.7898 105.244 50.906 105.244 44.2689C105.244 39.8929 104.884 37.086 104.161 35.8455C105.462 31.2524 108.022 28.9531 111.848 28.9531ZM147.153 28.2989C148.45 28.4428 149.606 29.7919 150.616 32.3464C151.844 35.6283 151.809 39.711 150.508 44.5973C150.148 46.2016 149.606 47.8793 148.886 49.6302L144.012 90.1074L144.88 98.0937C142.784 98.8239 140.928 99.5894 139.302 100.39C137.68 101.194 136.18 101.558 134.81 101.484C132.787 101.267 131.237 100.445 130.154 99.0221C129.072 97.6024 128.781 95.7972 129.287 93.6092C129.504 92.7324 129.864 91.8936 130.369 91.0928C131.452 68.8467 134.088 55.719 138.273 51.7095C137.696 42.0076 137.876 36.1007 138.816 33.986C141.487 29.9738 144.265 28.0791 147.153 28.2989ZM541.16 25.0387C549.954 25.0224 555.488 29.8653 557.764 39.5645C558.989 52.4018 553.54 62.4675 541.413 69.7588L537.407 71.0727C536.179 71.583 534.702 71.9468 532.969 72.1667L531.343 72.3838L530.586 72.7123H526.798C527.013 73.733 527.375 74.865 527.88 76.1055L528.205 76.6512C535.422 87.0073 545.024 88.6117 557.004 81.4641C558.016 81.1004 559.169 80.9185 560.469 80.9185C562.707 81.5021 564.62 82.9246 566.208 85.1858C566.568 87.7375 566.243 90.254 565.233 92.7324C558.881 97.692 553.433 100.1 548.884 99.9532L545.529 99.8446L538.815 101.484C533.979 100.757 530.153 98.4955 527.338 94.7032C524.522 90.9109 520.301 86.4237 514.67 81.247C509.184 65.0544 512 49.1931 523.117 33.6575C523.837 32.7834 524.92 31.798 526.365 30.7041L526.798 30.1584L528.205 29.3929L528.745 28.8446C530.118 27.9705 532.031 27.0937 534.484 26.2196L537.192 25.3428C538.581 25.1446 539.903 25.0414 541.16 25.0387ZM185.225 24.7618C188.263 24.8596 189.564 27.9705 189.121 34.0946L196.807 32.6749L197.35 32.455L199.19 32.0179H200.273C200.923 32.6748 201.463 33.5137 201.895 34.5343C202.401 38.0334 201.753 41.462 199.948 44.8172C198.575 45.618 196.807 46.2396 194.642 46.6767C192.909 47.1137 191.504 47.3336 190.421 47.3336C190.058 47.4775 189.553 47.5508 188.903 47.5508L188.363 48.2077C188.508 49.3017 188.47 50.5423 188.255 51.9267C188.325 52.8035 188.255 53.7862 188.038 54.8802V56.9596C187.893 57.8364 187.82 58.8924 187.82 60.1329L187.495 63.0864V65.1657C187.28 66.9872 187.173 68.521 187.173 69.7588L186.955 70.8528L186.737 73.8063L186.63 75.0116C186.63 76.396 186.412 78.2935 185.98 80.6986C185.907 83.3236 185.512 85.441 184.79 87.0453C181.469 94.1195 177.933 95.9057 174.18 92.4039C173.817 91.1661 173.637 89.7789 173.637 88.2479C173.855 87.1539 173.963 85.7667 173.963 84.0918L174.18 82.5581C174.25 81.1737 174.36 80.0064 174.503 79.059V78.1822L175.045 71.0727C175.333 69.9054 175.478 68.4097 175.478 66.5882L175.585 65.3829V63.0864L175.803 62.4295V60.7898L176.021 59.913V58.4906C176.093 57.3233 176.128 55.8303 176.128 54.0061C176.273 52.7655 176.346 51.2345 176.346 49.4103L176.561 45.3628C173.457 45.9465 170.894 45.9112 168.874 45.2542L163.353 45.8026L160.645 45.2542L158.805 44.4888L157.397 44.3802L156.096 43.3948C155.591 43.031 155.086 41.9723 154.581 40.2214C154.726 38.6904 155.266 37.3765 156.207 36.2825C156.927 35.118 157.649 34.4231 158.372 34.2059L160.105 34.3144L161.945 35.08L164.111 35.7369L176.886 36.5024C177.968 31.1058 180.279 27.2403 183.814 24.9057C184.32 24.7971 184.79 24.7483 185.225 24.7618ZM485.668 24.0995C504.687 24.0479 511.747 35.2184 506.852 57.6165C502.306 70.5977 492.417 76.8711 477.186 76.434C477.044 78.9124 477.366 82.1211 478.162 86.0599L478.487 87.4824C478.124 89.5238 477.044 91.2747 475.239 92.7324C466.937 95.8705 462.859 90.254 463.004 75.8857C452.249 75.5952 447.448 71.9848 448.603 65.0544C451.491 60.2415 456.362 59.1475 463.221 61.7725C463.221 51.5629 466.107 41.6819 471.883 32.1265L473.831 29.83L475.239 28.6247L476.214 27.642C478.162 26.1816 480.545 25.1256 483.358 24.4687L483.793 24.1402C484.43 24.1157 485.056 24.1022 485.668 24.0995ZM247.055 23.866C248.342 23.866 249.769 24.0316 251.337 24.3601C252.348 25.4541 253.035 26.6566 253.395 27.9705L253.178 29.3929V32.1265L252.855 32.5636L252.313 41.3154L252.095 42.9577L251.773 48.6448C251.628 48.7914 251.555 49.0845 251.555 49.5216L251.012 60.6785L250.797 61.3355V66.6968C257.581 66.8434 259.279 68.6296 255.886 72.0581C254.081 74.827 252.095 75.9589 249.93 75.4486L250.797 84.6375C252.168 91.8583 248.667 97.2196 240.295 100.719C238.345 100.865 236.577 100.355 234.989 99.1877L234.014 95.7971L235.422 81.247L236.397 76.1055L228.168 77.1995L219.506 77.4167L222.214 84.8574L223.622 89.0134C224.56 91.2014 224.667 93.4246 223.945 95.6859C223.152 97.4368 222.214 99.1144 221.132 100.719C218.531 102.106 215.573 102.396 212.252 101.596C211.675 101.012 211.062 99.7333 210.412 97.7652L210.087 96.0143L209.329 92.0755L209.112 90.3273L208.787 89.4505L208.247 84.4176L208.029 83.3236V81.4641C207.814 80.59 207.704 79.5313 207.704 78.2935C206.189 78.1469 204.638 77.5633 203.051 76.5426C202.543 72.7503 204.023 69.3218 207.489 66.2597V64.9459C207.489 63.7053 207.562 62.1743 207.704 60.3501V58.819L208.029 58.382V56.3026L208.572 53.132V52.2552L209.547 46.5681L209.869 45.0344L210.087 43.6146C210.087 43.031 210.267 42.2655 210.63 41.3154C210.845 40.5879 211.025 39.8577 211.17 39.1274L211.387 38.1448C211.747 37.2679 212.36 36.1387 213.228 34.7515L213.553 34.3144C215.428 32.1998 217.956 30.5575 221.132 29.3929C223.585 29.0997 225.605 29.83 227.193 31.5809C227.555 32.8187 227.123 33.8394 225.895 34.6429L226.435 37.1594L225.245 39.2387C224.667 40.4033 224.307 41.0982 224.162 41.3154C224.017 41.5353 223.622 42.5207 222.972 44.2689V45.9112C222.972 48.0259 222.72 49.7387 222.214 51.0526L220.807 66.2597C224.847 66.5502 228.095 66.6235 230.551 66.4769C231.776 66.6235 234.014 66.6235 237.262 66.4769C237.552 63.3416 237.697 61.0803 237.697 59.6958C239.573 49.1198 240.548 39.2387 240.621 30.0471C239.898 28.079 241.631 26.0377 245.816 23.923C246.214 23.885 246.625 23.866 247.055 23.866ZM452.612 18.6513C457.324 18.7544 459.524 21.6781 459.207 27.4221C458.557 28.8799 457.62 30.0851 456.392 31.0325C454.804 31.836 452.819 32.5636 450.438 33.2205C450.293 33.3671 450.022 33.5299 449.624 33.7118C449.229 33.8964 448.85 33.986 448.488 33.986L445.132 35.1886L444.267 35.6283L442.534 36.3938C441.092 36.8309 439.501 37.6317 437.771 38.799L436.796 39.2387C436 40.0395 435.208 41.0982 434.413 42.4094L434.198 46.8966L434.413 48.6448L435.93 54.1147C436.218 54.7716 436.436 55.6484 436.578 56.7424L437.336 58.7104L437.986 61.8838L438.528 62.7579C438.671 63.9252 438.996 65.1278 439.501 66.3683C439.501 67.389 439.719 68.4477 440.151 69.5417L440.369 71.1813L440.694 73.1521L440.909 74.3546L441.126 75.5572V79.9331L440.909 81.3556L440.694 82.9979L439.936 85.1858C434.883 93.8644 425.103 96.9264 410.593 94.3747C404.892 90.3625 404.999 86.0952 410.918 81.5755L414.924 81.3556C419.04 82.1591 423.153 81.684 427.269 79.9331C427.629 78.7658 427.736 77.5633 427.591 76.3227L424.021 62.101L423.696 61.1183L423.478 60.1329L423.26 59.1475L422.503 57.288L422.288 55.8656L421.095 50.5043L420.88 49.3017V47.4422L420.662 46.6767C420.662 45.4361 420.735 43.8318 420.88 41.8637V41.2068L421.313 39.2387L421.638 38.0335L422.288 36.3938C422.43 35.8835 422.755 35.2266 423.26 34.423L424.886 31.7981C430.804 26.1816 438.528 22.1721 448.055 19.7643L450.438 18.7789C451.215 18.6784 451.937 18.6377 452.612 18.6513ZM333.978 3.68304H349.461C350.617 5.28737 351.229 6.78311 351.302 8.16755C351.302 9.33482 347.946 11.2323 341.232 13.8573C334.158 16.5556 330.803 21.4799 331.163 28.6247L331.488 33.6575L332.138 51.2725L333.438 78.5107C333.798 86.535 334.881 94.3367 336.686 101.921C334.881 107.027 332.264 110.746 328.836 113.081C325.408 115.415 321.203 116.583 316.222 116.583C311.314 116.583 306.405 115.451 301.497 113.19C295.866 110.638 291.97 107.391 289.805 103.455C289.805 99.9532 290.922 98.167 293.16 98.0937C294.53 98.0204 298.321 99.8446 304.527 103.564C310.304 107.065 314.524 108.887 317.198 109.033C319.796 109.107 321.851 107.247 323.369 103.455C323.369 91.4213 322.864 77.2728 321.851 61.007C321.781 57.7251 321.456 52.5484 320.878 45.4741C320.373 41.6819 319.723 36.8309 318.928 30.9239V28.079C319.29 26.4014 320.156 23.5945 321.528 19.6557L311.134 19.7643H302.255C296.408 19.7643 293.485 19.1453 293.485 17.9048C293.485 17.2478 293.99 16.0806 295.001 14.4029L297.384 10.4668C301.787 7.11157 308.463 5.36066 317.412 5.21408C321.383 5.14078 324.161 5.07019 325.749 4.9969C329.647 4.77701 332.39 4.33997 333.978 3.68304Z" stroke="#FFDE00" stroke-width="24" stroke-miterlimit="10" stroke-linejoin="round"/>
</g>
</svg>
