<svg width="501" height="67" viewBox="0 0 501 67" fill="none" xmlns="http://www.w3.org/2000/svg">
<path fill-rule="evenodd" clip-rule="evenodd" d="M22.8783 36.4635C21.045 36.4635 19.5994 36.6957 18.5414 37.1603C17.4833 37.6248 16.9542 38.4146 16.9542 39.5295V52.6293C16.9542 53.7442 17.824 54.3017 19.5637 54.3017C20.6925 54.3017 22.4675 54.0229 24.8887 53.4655C27.3098 52.908 29.0847 52.6293 30.2135 52.6293L35.3616 50.7478C38.3708 49.6335 40.2751 48.0772 41.0745 46.0797L39.3812 40.2263C38.0653 39.3436 35.4092 38.4843 31.4128 37.6481C27.6513 36.8582 24.8065 36.4635 22.8783 36.4635ZM436.456 15.9767C433.439 15.9302 431.14 16.5922 429.561 17.9626C427.981 19.333 427.286 21.319 427.473 23.9205L427.615 25.8717C427.851 29.0306 428.134 31.1442 428.464 32.2128C428.7 32.956 430.586 33.3509 434.122 33.3974C437.659 33.4438 440.583 32.7006 442.893 31.1676C445.535 29.4487 447.043 26.9401 447.42 23.6418C446.006 20.808 444.615 18.8801 443.247 17.8581C441.644 16.6038 439.381 15.9767 436.456 15.9767ZM78.0554 15.3495C75.0374 15.3495 73.1983 18.16 72.5382 23.7812C71.878 29.4022 70.7934 33.4903 69.2844 36.0454L72.1845 35.6273L73.9528 35.4879L78.6213 35.8363C79.4229 35.8827 80.5311 35.6736 81.9458 35.2092C83.1718 34.7911 84.7751 33.9084 86.7557 32.5612C86.3313 29.588 85.223 25.9645 83.4312 21.6907C81.6864 17.5561 80.3661 15.4656 79.4701 15.4192L78.5505 15.3495H78.0554ZM22.2239 13.7359C19.5007 13.7663 17.9327 14.1881 17.5201 15.0011L16.6006 17.3703L16.9542 29.3558C18.4632 28.9805 20.4437 28.6759 22.8959 28.4422C24.8764 28.2543 26.4326 27.9258 27.5643 27.4569C29.2619 26.8007 31.1482 25.5587 33.223 23.731L34.4962 20.0748L33.223 14.8018C32.1385 14.1457 30.7709 13.794 29.1205 13.7468H23.4618C23.0255 13.7352 22.613 13.7315 22.2239 13.7359ZM436.456 6.70888C440.701 6.66239 444.662 8.70637 448.34 12.8409C451.83 16.7896 453.599 20.9009 453.645 25.1748C453.692 29.8203 451.853 33.5368 448.128 36.3241C444.732 38.8791 440.607 40.1798 435.749 40.2263C432.826 40.2727 430.492 39.7386 428.747 38.6236L430.161 48.1702C430.681 51.6081 430.893 54.3485 430.798 56.3921L430.727 58.0645C430.727 58.437 430.681 58.9704 430.586 59.6672C430.444 61.4334 429.525 62.3621 427.827 62.4546L426.412 62.3152C425.846 62.2696 425.281 61.8743 424.715 61.1306L423.017 58.9704L420.471 46.9159C419.717 43.3388 419.316 40.7141 419.268 39.0417L418.915 25.1748C418.773 20.0183 420.683 15.6283 424.644 12.0048C428.417 8.52064 432.354 6.75526 436.456 6.70888ZM407.385 6.70888H414.812C415.378 7.59145 415.661 8.31159 415.661 8.86905C415.661 9.38002 414.058 10.2859 410.851 11.5867C407.503 12.9338 405.924 15.2799 406.112 18.6246V20.8545L406.465 29.7739C406.465 30.9817 406.513 32.747 406.607 35.0698C406.843 38.3681 406.985 40.807 407.031 42.3865C407.031 44.1518 407.268 46.2654 407.739 48.7276C407.88 49.4708 408.187 50.8644 408.658 52.908C410.262 52.908 411.983 53.3033 413.822 54.0926C415.284 54.6969 416.039 55.5559 416.085 56.6709C416.133 57.2283 415.567 58.3901 414.388 60.155C414.011 60.7594 413.728 61.2003 413.539 61.479C413.162 61.9908 412.69 62.3152 412.124 62.4546L409.295 61.2699C408.4 61.0381 407.456 60.8759 406.465 60.7822L399.321 61.2003C395.88 61.3865 393.404 60.1791 391.894 57.5768C391.894 55.6256 392.72 54.4651 394.37 54.0926C395.88 53.7683 397.79 53.6048 400.099 53.6048H402.221C402.221 51.6081 402.139 48.5883 401.974 44.5467C401.81 40.5051 401.726 37.4854 401.726 35.4879C401.726 34.2336 401.349 30.4939 400.594 24.2689L400.029 19.6002C400.029 17.9742 400.477 16.1857 401.373 14.2346H390.48C388.688 14.2346 387.792 13.9355 387.792 13.3373C387.887 13.0615 387.946 12.8432 387.969 12.6825C387.992 12.5217 388.17 12.2573 388.499 11.8893L389.701 9.88921C391.919 8.32565 395.148 7.49782 399.392 7.40571C401.42 7.35922 402.764 7.31271 403.424 7.26634C405.169 7.17335 406.49 6.98762 407.385 6.70888ZM378.778 6.70888L381.889 7.75413V23.9902L382.314 46.7068C382.408 50.7947 382.219 53.5123 381.748 54.8591C381.37 55.974 380.334 56.904 378.635 57.6464C377.598 57.6464 376.656 56.7646 375.805 54.9985C375.052 53.4199 374.651 51.1431 374.604 48.1702C374.557 45.801 374.887 43.5246 375.595 41.3413C371.255 41.3413 367.837 41.5038 365.338 41.829C363.641 42.0148 361.07 42.34 357.628 42.8046C355.6 42.8046 352.677 42.4329 348.856 41.6897L349.069 46.6372C349.116 47.6591 349.054 49.0993 348.883 50.9569C348.842 51.7931 348.739 52.9321 348.573 54.3713L348.008 62.1758L342.703 62.4546L342.067 51.9324L342.703 41.6897C340.863 41.6897 339.331 41.829 338.106 42.1078L335.912 43.0833L334.709 42.2471L332.093 40.1567C333.431 37.3693 335.152 35.5111 337.254 34.582L341.771 33.4671C342.345 31.7017 342.654 29.89 342.703 28.0318V11.7957C342.703 9.93748 343.881 8.96192 346.24 8.86905C347.059 8.82256 347.758 8.96192 348.335 9.28715C348.912 9.61225 349.346 10.193 349.634 11.0292L348.927 12.9803L348.716 14.7921C348.716 15.7676 348.833 16.627 349.069 17.3703L349.423 19.4608L349.069 20.5061L348.573 33.049H356.244C358.685 33.049 360.257 32.9328 360.96 32.7006L369.126 31.8644C369.875 31.8644 370.627 31.9855 371.378 32.228L375.39 33.5368C375.39 31.0216 375.647 27.6681 376.164 23.4762L377.009 16.6299V14.4632C376.962 14.0444 376.843 13.4623 376.656 12.7168C376.656 12.2043 376.584 11.6454 376.443 11.0401C376.302 10.4346 376.019 9.6196 375.595 8.59463L375.382 7.75628L378.778 6.70888ZM202.02 6.70888L203.221 6.91793C204.354 7.10367 204.967 8.2186 205.062 10.2627C205.108 10.9595 205.061 11.6795 204.919 12.4229C204.919 12.5622 204.491 13.9326 203.633 16.5341C203.443 17.1845 203.11 17.9045 202.632 18.6943L201.133 24.2689L198.634 35.6969C197.92 38.9487 197.563 42.131 197.563 45.2435C197.563 48.0772 198.886 50.1213 201.533 51.375C204.038 52.5368 207.418 53.1411 211.672 53.1867C215.075 53.2336 218.998 52.8624 223.441 52.0718C224.292 51.9324 225.213 51.7475 226.206 51.5143L227.271 52.4899C227.554 52.7686 227.789 53.4198 227.978 54.441C227.978 54.8135 227.837 55.2772 227.554 55.8347L226.564 57.2283C218.924 60.7125 209.824 62.4546 199.26 62.4546H197.352C194.569 62.4546 192.6 62.2696 191.445 61.8971C190.29 61.5259 189.499 60.62 189.075 59.1795L189.711 39.0417C189.759 37.6944 190.16 34.9304 190.914 30.7495C191.999 24.8496 193.013 20.1808 193.955 16.7432C195.23 12.1905 196.455 9.19416 197.635 7.75413L199.685 7.0573C200.015 7.0573 200.346 7.0108 200.675 6.91793C201.241 6.82493 201.69 6.75526 202.02 6.70888ZM165.7 6.70888C167.115 6.94112 168.082 8.24191 168.602 10.6111C169.168 13.2126 169.544 14.583 169.733 14.7224L171.996 15.2798L175.675 15.5586L180.059 15.3495L183.527 14.8618L184.657 16.3251C185.081 16.8826 185.295 17.7187 185.295 18.8337C185.295 19.5305 185.106 20.1343 184.729 20.6454L183.81 21.8997H180.201C179.636 21.8532 178.881 21.7604 177.937 21.621L172.138 20.8545C171.525 20.8545 171.03 20.9357 170.652 21.0984C170.275 21.2609 169.944 21.8997 169.663 23.0147C169.38 24.1296 169.237 29.1699 169.237 38.1358V61.0609L164.852 62.4546L161.245 61.1306L160.538 52.3505L160.395 43.6408C160.349 41.9684 160.395 37.95 160.538 31.5857L161.104 23.4328C161.15 22.5966 161.08 21.7836 160.892 20.9939C160.089 19.7859 159.053 19.1821 157.778 19.1821L155.375 19.5305L152.545 19.8092C150.752 19.8092 149.078 19.2981 147.522 18.2762L146.674 17.0916C146.627 16.9522 146.508 16.5108 146.321 15.7676C146.321 15.0243 146.531 14.4668 146.956 14.0952L148.089 13.1197C149.456 13.1197 151.519 13.2706 154.278 13.5726C157.036 13.8745 159.099 14.0256 160.467 14.0256C160.749 14.0256 160.915 13.8629 160.962 13.5378L160.821 12.5622L160.749 11.5867L160.962 10.2627C161.104 9.75162 161.362 9.28715 161.739 8.86905C161.928 8.54382 162.494 8.25344 163.437 7.99802C164.381 7.74247 165.136 7.31272 165.7 6.70888ZM122.746 6.70888C124.16 6.94112 125.127 8.24191 125.647 10.6111C126.213 13.2126 126.59 14.583 126.779 14.7224L129.042 15.2798L132.72 15.5586L137.106 15.3495L140.571 14.8618L141.702 16.3251C142.127 16.8826 142.34 17.7187 142.34 18.8337C142.34 19.5305 142.151 20.1343 141.774 20.6454L140.855 21.8997H137.246C136.681 21.8532 135.927 21.7604 134.984 21.621L129.184 20.8545C128.57 20.8545 128.075 20.9357 127.697 21.0984C127.32 21.2609 126.99 21.8997 126.708 23.0147C126.425 24.1296 126.282 29.1699 126.282 38.1358V61.0609L121.898 62.4546L118.291 61.1306L117.583 52.3505L117.441 43.6408C117.394 41.9684 117.441 37.95 117.583 31.5857L118.148 23.4328C118.196 22.5966 118.125 21.7836 117.937 20.9939C117.135 19.7859 116.098 19.1821 114.825 19.1821L112.42 19.5305L109.59 19.8092C107.798 19.8092 106.123 19.2981 104.568 18.2762L103.72 17.0916C103.672 16.9522 103.554 16.5108 103.366 15.7676C103.366 15.0243 103.578 14.4668 104.001 14.0952L105.134 13.1197C106.501 13.1197 108.564 13.2706 111.323 13.5726C114.081 13.8745 116.144 14.0256 117.513 14.0256C117.794 14.0256 117.96 13.8629 118.008 13.5378L117.866 12.5622L117.794 11.5867L118.008 10.2627C118.148 9.75162 118.408 9.28715 118.786 8.86905C118.974 8.54382 119.539 8.25344 120.483 7.99802C121.426 7.74247 122.181 7.31272 122.746 6.70888ZM77.9847 6.70888C81.4741 6.66239 84.6572 9.84461 87.5337 16.2554C90.7405 23.3631 92.7918 28.9841 93.6882 33.1187L99.1347 57.9948L98.6396 59.8066C98.4029 60.5972 98.0737 61.1775 97.6493 61.5487C97.2249 61.9212 96.7761 62.1758 96.3054 62.3152L95.1029 62.4546C94.3004 62.4546 93.7345 62.4089 93.4053 62.3152L91.9906 61.8971V58.6917L92.0613 55.6256C92.1552 52.4202 91.7308 50.0748 90.7881 48.5883C89.8444 47.1016 87.9109 46.3584 84.9873 46.3584C76.7822 46.3119 71.654 46.7417 69.6027 47.6476C67.5514 48.5534 65.9718 50.4929 64.8635 53.4655C63.7553 56.439 61.7394 59.1338 58.8158 61.5487L57.4011 61.9668L55.845 62.1061C55.0904 62.1061 54.5482 61.8743 54.2181 61.4093C54.0766 60.9912 54.0059 60.4337 54.0059 59.7369C54.0059 58.3433 54.1474 56.9737 54.4303 55.6256C54.8075 53.8607 55.1612 52.5368 55.4913 51.6537C56.6231 48.7277 58.6036 42.0148 61.4329 31.516C63.7436 22.9682 66.0778 16.5341 68.4356 12.2138C70.4161 8.59032 73.5992 6.75526 77.9847 6.70888ZM26.857 6.70888C29.2147 6.70888 32.0206 7.91668 35.2743 10.3324C38.5281 12.748 40.1549 15.3727 40.1549 18.2065C40.1549 20.6686 39.8248 22.7591 39.1647 24.478C38.5988 26.4291 37.2548 28.1479 35.1328 29.6345C39.5655 31.725 43.1258 33.6065 45.8136 35.2789C48.2658 36.8119 49.5153 39.6456 49.5625 43.7802C48.9495 45.5919 48.6076 46.6139 48.5369 46.8462C48.4662 47.0784 48.1951 47.6591 47.7235 48.5883C45.3657 53.2805 41.7583 56.8343 36.9012 59.2491C32.5629 61.3865 27.5408 62.4546 21.8349 62.4546C17.7323 62.4546 14.455 61.8743 12.0029 60.7125L5.21243 57.5071L4.36362 53.8139L5.5661 52.2112L11.8614 52.6293C11.437 50.725 11.0833 49.0528 10.8004 47.6127C10.5647 46.5907 10.2581 44.9648 9.88086 42.7349C9.55072 41.0625 9.36219 38.7862 9.31499 35.906C9.26779 33.769 9.52719 32.236 10.0931 31.3069L11.8614 29.6345C11.7671 29.2164 11.5549 28.6357 11.2248 27.8925C11.2248 27.7995 11.0126 27.0563 10.5882 25.6626C10.1638 24.2689 9.95159 22.5269 9.95159 20.4364C9.95159 11.2846 15.5868 6.70888 26.857 6.70888ZM481.74 6.70774C483.995 6.74334 486.05 7.04564 487.906 7.61476C491.018 8.54382 492.574 10.0303 492.574 12.0744C492.574 13.0964 492.174 14.2113 491.372 15.4192C490.901 15.3727 490.347 15.3147 489.71 15.245C489.073 15.1753 488.684 15.1405 488.542 15.1405C488.355 15.1405 487.976 15.1405 487.411 15.1405C486.703 15.1405 486.091 15.1405 485.571 15.1405C481.988 15.094 478.758 15.6507 475.881 16.8106C473.288 17.8776 471.967 19.7562 471.92 22.4463C471.92 23.6062 474.585 25.6938 479.913 28.709C486.468 32.4196 490.028 34.5301 490.594 35.0404C493.423 37.4524 494.862 41.372 494.908 46.7993C494.956 51.5308 492.528 55.428 487.623 58.489C483.379 61.1331 478.735 62.4546 473.688 62.4546C469.916 62.4546 466.25 61.6652 462.69 60.0853C459.13 58.5067 457.349 56.2997 457.349 53.4655V50.1213C457.349 48.867 457.727 48.2399 458.48 48.2399C464.988 51.4447 472.25 53.0474 480.266 53.0474C482.059 52.6761 483.237 51.6537 483.803 49.9819C484.134 48.9599 484.298 47.3107 484.298 45.0345C484.298 41.5503 482.318 38.8791 478.357 37.0209L467.322 31.8644C463.361 29.4952 461.357 26.3361 461.31 22.3875C461.263 19.1821 463.692 15.7211 468.595 12.0048C473.264 8.52064 477.32 6.75526 480.762 6.70888C481.092 6.70306 481.419 6.70267 481.74 6.70774ZM314.294 6.70774C316.549 6.74334 318.604 7.04564 320.461 7.61476C323.573 8.54382 325.128 10.0303 325.128 12.0744C325.128 13.0964 324.728 14.2113 323.927 15.4192C323.455 15.3727 322.9 15.3147 322.264 15.245C321.627 15.1753 321.238 15.1405 321.097 15.1405C320.908 15.1405 320.53 15.1405 319.964 15.1405C319.257 15.1405 318.645 15.1405 318.125 15.1405C314.542 15.094 311.312 15.6507 308.436 16.8106C305.842 17.8776 304.521 19.7562 304.475 22.4463C304.475 23.6062 307.138 25.6938 312.467 28.709C319.022 32.4196 322.583 34.5301 323.147 35.0404C325.977 37.4524 327.416 41.372 327.463 46.7993C327.51 51.5308 325.082 55.428 320.177 58.489C315.933 61.1331 311.289 62.4546 306.243 62.4546C302.47 62.4546 298.803 61.6652 295.244 60.0853C291.684 58.5067 289.903 56.2997 289.903 53.4655V50.1213C289.903 48.867 290.281 48.2399 291.034 48.2399C297.542 51.4447 304.804 53.0474 312.82 53.0474C314.613 52.6761 315.792 51.6537 316.357 49.9819C316.687 48.9599 316.853 47.3107 316.853 45.0345C316.853 41.5503 314.872 38.8791 310.912 37.0209L299.877 31.8644C295.915 29.4952 293.911 26.3361 293.865 22.3875C293.817 19.1821 296.245 15.7211 301.149 12.0048C305.818 8.52064 309.874 6.75526 313.317 6.70888C313.646 6.70306 313.973 6.70267 314.294 6.70774ZM270.605 5.45459C271.643 5.45459 272.327 5.87269 272.656 6.70888V13.6075C268.271 15.2333 264.193 16.3018 260.419 16.8129C256.506 17.3238 254.29 18.2762 253.772 19.6699C253.346 20.8312 253.087 25.4071 252.992 33.3974C262.895 30.703 269.215 29.3325 271.949 29.2861C274.354 29.2396 275.556 30.099 275.556 31.8644C275.556 32.7006 275.18 34.0709 274.425 35.9757C270.087 37.137 265.749 38.2984 261.41 39.4598C254.997 41.2716 251.767 43.1762 251.719 45.1738C251.673 47.8681 252.144 50.0748 253.134 51.7931C254.313 53.8836 256.175 54.9288 258.723 54.9288C259.853 54.9288 261.469 54.6159 263.568 53.9887C265.667 53.3616 267.257 53.0246 268.342 52.9777C271.643 52.8852 277.16 54.0926 284.893 56.6012L285.176 57.089C285.318 57.2283 285.388 57.5071 285.388 57.9252C285.388 58.2977 285.201 58.6689 284.823 59.0401C283.925 59.9232 281.35 60.5972 277.098 61.0609C274.785 61.1547 271.289 61.3168 266.613 61.5487C265.337 61.5956 263.849 61.6652 262.149 61.7577L247.411 62.4546L244.435 59.1098V48.1005C244.435 44.5699 243.986 42.7813 243.09 42.7349L241.393 43.153L239.058 43.5014C238.257 43.5014 237.761 43.4781 237.574 43.4318C236.442 43.3853 234.744 42.6187 232.48 41.1322V35.9757C233.471 35.7433 233.966 35.1975 233.966 34.3381C233.966 33.4786 237.054 33.0257 243.231 32.9793C243.231 32.0501 243.208 31.2836 243.162 30.6798C243.066 29.1003 242.948 27.242 242.808 25.1051L242.382 18.555C242.101 14.281 243.586 11.0756 246.84 8.93874C249.809 6.98761 256.105 6.01206 265.724 6.01206L270.605 5.45459Z" stroke="#231F20" stroke-width="8" stroke-miterlimit="10" stroke-linejoin="round"/>
<mask id="mask0_3_136" style="mask-type:alpha" maskUnits="userSpaceOnUse" x="5" y="0" width="496" height="61">
<path d="M500.818 0H5.81818V61H500.818V0Z" fill="white"/>
<path fill-rule="evenodd" clip-rule="evenodd" d="M26.3328 33.0089C24.4995 33.0089 23.054 33.2411 21.9959 33.7057C20.9379 34.1702 20.4088 34.96 20.4088 36.0749V49.1747C20.4088 50.2896 21.2786 50.8471 23.0182 50.8471C24.147 50.8471 25.922 50.5684 28.3432 50.0109C30.7644 49.4534 32.5393 49.1747 33.668 49.1747L38.8162 47.2933C41.8253 46.179 43.7296 44.6226 44.529 42.6251L42.8358 36.7718C41.5199 35.8891 38.8638 35.0297 34.8673 34.1935C31.1058 33.4037 28.261 33.0089 26.3328 33.0089ZM439.911 12.5221C436.894 12.4756 434.594 13.1376 433.015 14.5081C431.436 15.8784 430.74 17.8644 430.928 20.466L431.069 22.4171C431.306 25.576 431.589 27.6897 431.918 28.7582C432.155 29.5014 434.04 29.8964 437.577 29.9428C441.114 29.9892 444.038 29.246 446.348 27.713C448.989 25.9941 450.498 23.4855 450.875 20.1872C449.46 17.3534 448.07 15.4255 446.701 14.4036C445.099 13.1493 442.836 12.5221 439.911 12.5221ZM81.5099 11.895C78.4919 11.895 76.6528 14.7055 75.9927 20.3266C75.3326 25.9476 74.2479 30.0357 72.739 32.5908L75.639 32.1727L77.4074 32.0333L82.0758 32.3818C82.8774 32.4281 83.9856 32.2191 85.4003 31.7546C86.6263 31.3365 88.2297 30.4538 90.2102 29.1067C89.7858 26.1335 88.6776 22.51 86.8857 18.2361C85.1409 14.1015 83.8206 12.011 82.9246 11.9647L82.0051 11.895H81.5099ZM25.6785 10.2814C22.9552 10.3118 21.3872 10.7335 20.9747 11.5466L20.0551 13.9158L20.4088 25.9012C21.9177 25.526 23.8983 25.2214 26.3504 24.9876C28.331 24.7997 29.8871 24.4712 31.0189 24.0023C32.7165 23.3462 34.6028 22.1042 36.6776 20.2764L37.9508 16.6202L36.6776 11.3473C35.593 10.6911 34.2254 10.3394 32.575 10.2923H26.9163C26.4801 10.2806 26.0675 10.2769 25.6785 10.2814ZM439.911 3.2543C444.155 3.2078 448.116 5.25178 451.794 9.38639C455.285 13.335 457.053 17.4463 457.099 21.7203C457.147 26.3657 455.308 30.0822 451.582 32.8695C448.187 35.4245 444.061 36.7253 439.204 36.7718C436.28 36.8181 433.946 36.284 432.201 35.1691L433.616 44.7156C434.135 48.1535 434.347 50.894 434.252 52.9376L434.182 54.61C434.182 54.9825 434.135 55.5159 434.04 56.2127C433.899 57.9788 432.979 58.9075 431.282 59L429.867 58.8606C429.301 58.815 428.735 58.4197 428.169 57.676L426.472 55.5159L423.925 43.4613C423.172 39.8842 422.77 37.2596 422.723 35.5872L422.369 21.7203C422.228 16.5637 424.137 12.1737 428.099 8.5502C431.872 5.06605 435.808 3.30067 439.911 3.2543ZM410.839 3.2543H418.267C418.832 4.13686 419.115 4.857 419.115 5.41446C419.115 5.92543 417.513 6.83131 414.305 8.1321C410.958 9.47926 409.378 11.8253 409.566 15.1701V17.3999L409.92 26.3193C409.92 27.5271 409.968 29.2924 410.061 31.6152C410.298 34.9135 410.44 37.3524 410.486 38.9319C410.486 40.6972 410.722 42.8109 411.193 45.2731C411.335 46.0163 411.642 47.4098 412.113 49.4534C413.716 49.4534 415.437 49.8487 417.276 50.638C418.738 51.2424 419.493 52.1014 419.54 53.2163C419.587 53.7738 419.021 54.9356 417.842 56.7005C417.465 57.3048 417.182 57.7457 416.993 58.0244C416.616 58.5363 416.144 58.8606 415.579 59L412.749 57.8154C411.854 57.5835 410.91 57.4213 409.92 57.3276L402.776 57.7457C399.334 57.9319 396.859 56.7245 395.349 54.1222C395.349 52.1711 396.174 51.0105 397.824 50.638C399.334 50.3137 401.244 50.1503 403.554 50.1503H405.676C405.676 48.1535 405.594 45.1337 405.429 41.0921C405.264 37.0505 405.181 34.0308 405.181 32.0333C405.181 30.779 404.804 27.0394 404.049 20.8144L403.483 16.1456C403.483 14.5196 403.932 12.7312 404.827 10.78H393.934C392.143 10.78 391.246 10.4809 391.246 9.88279C391.341 9.60697 391.401 9.38867 391.424 9.22789C391.447 9.06712 391.624 8.8027 391.954 8.43477L393.156 6.43462C395.373 4.87106 398.602 4.04323 402.847 3.95112C404.875 3.90463 406.219 3.85813 406.878 3.81175C408.624 3.71876 409.944 3.53303 410.839 3.2543ZM382.232 3.2543L385.343 4.29954V20.5357L385.769 43.2523C385.863 47.3401 385.674 50.0578 385.203 51.4045C384.825 52.5195 383.788 53.4494 382.089 54.1919C381.053 54.1919 380.11 53.3101 379.26 51.5439C378.506 49.9653 378.105 47.6886 378.059 44.7156C378.011 42.3464 378.342 40.0701 379.049 37.8867C374.71 37.8867 371.292 38.0493 368.793 38.3745C367.095 38.5602 364.524 38.8854 361.083 39.35C359.055 39.35 356.131 38.9783 352.31 38.2351L352.524 43.1826C352.57 44.2045 352.509 45.6447 352.337 47.5023C352.296 48.3385 352.193 49.4775 352.028 50.9168L351.463 58.7213L346.158 59L345.521 48.4779L346.158 38.2351C344.318 38.2351 342.786 38.3745 341.56 38.6532L339.366 39.6288L338.164 38.7926L335.548 36.7021C336.885 33.9148 338.606 32.0565 340.709 31.1275L345.225 30.0125C345.799 28.2471 346.109 26.4354 346.158 24.5773V8.34114C346.158 6.48289 347.336 5.50733 349.695 5.41446C350.514 5.36797 351.212 5.50733 351.79 5.83256C352.367 6.15766 352.8 6.73844 353.089 7.57463L352.381 9.52576L352.17 11.3375C352.17 12.3131 352.287 13.1725 352.524 13.9158L352.878 16.0063L352.524 17.0515L352.028 29.5944H359.699C362.14 29.5944 363.711 29.4783 364.415 29.246L372.58 28.4098C373.33 28.4098 374.081 28.5309 374.832 28.7734L378.845 30.0822C378.845 27.567 379.102 24.2135 379.619 20.0216L380.464 13.1754V11.0086C380.416 10.5899 380.298 10.0077 380.11 9.26223C380.11 8.74974 380.038 8.19088 379.898 7.58553C379.756 6.98005 379.474 6.16501 379.049 5.14004L378.837 4.30169L382.232 3.2543ZM205.475 3.2543L206.676 3.46334C207.809 3.64908 208.421 4.76401 208.516 6.80812C208.563 7.50495 208.515 8.22497 208.374 8.96829C208.374 9.10766 207.945 10.478 207.088 13.0796C206.897 13.7299 206.564 14.4499 206.087 15.2398L204.587 20.8144L202.089 32.2424C201.375 35.4942 201.017 38.6764 201.017 41.7889C201.017 44.6226 202.341 46.6668 204.987 47.9204C207.493 49.0822 210.872 49.6866 215.127 49.7322C218.53 49.779 222.452 49.4078 226.896 48.6172C227.747 48.4779 228.668 48.2929 229.661 48.0598L230.725 49.0353C231.008 49.3141 231.244 49.9653 231.433 50.9865C231.433 51.3589 231.291 51.8227 231.008 52.3801L230.018 53.7738C222.379 57.2579 213.279 59 202.715 59H200.806C198.023 59 196.054 58.815 194.899 58.4425C193.745 58.0713 192.954 57.1654 192.529 55.7249L193.166 35.5872C193.213 34.2399 193.615 31.4759 194.368 27.2949C195.454 21.395 196.467 16.7263 197.41 13.2886C198.684 8.73593 199.91 5.73957 201.089 4.29954L203.139 3.60271C203.47 3.60271 203.8 3.55621 204.13 3.46334C204.695 3.37034 205.144 3.30067 205.475 3.2543ZM169.155 3.2543C170.57 3.48653 171.537 4.78732 172.056 7.15654C172.622 9.75799 172.999 11.1285 173.188 11.2678L175.45 11.8253L179.13 12.104L183.514 11.895L186.981 11.4072L188.112 12.8705C188.536 13.428 188.749 14.2642 188.749 15.3791C188.749 16.0759 188.56 16.6798 188.184 17.1909L187.264 18.4452H183.655C183.091 18.3987 182.336 18.3058 181.392 18.1664L175.593 17.3999C174.98 17.3999 174.484 17.4811 174.106 17.6438C173.729 17.8064 173.399 18.4452 173.117 19.5601C172.834 20.675 172.692 25.7154 172.692 34.6813V57.6063L168.306 59L164.7 57.676L163.993 48.896L163.85 40.1862C163.804 38.5139 163.85 34.4954 163.993 28.1311L164.559 19.9782C164.605 19.142 164.534 18.329 164.346 17.5393C163.544 16.3314 162.507 15.7275 161.233 15.7275L158.829 16.0759L156 16.3547C154.207 16.3547 152.532 15.8436 150.976 14.8217L150.129 13.637C150.081 13.4977 149.963 13.0563 149.775 12.3131C149.775 11.5697 149.986 11.0123 150.41 10.6407L151.543 9.66512C152.911 9.66512 154.973 9.81602 157.732 10.1181C160.491 10.42 162.554 10.571 163.922 10.571C164.204 10.571 164.369 10.4083 164.417 10.0832L164.276 9.10765L164.204 8.1321L164.417 6.80812C164.559 6.29703 164.817 5.83256 165.194 5.41446C165.383 5.08924 165.949 4.79885 166.891 4.54343C167.835 4.28788 168.59 3.85813 169.155 3.2543ZM126.2 3.2543C127.615 3.48653 128.582 4.78732 129.102 7.15654C129.667 9.75799 130.044 11.1285 130.233 11.2678L132.497 11.8253L136.175 12.104L140.56 11.895L144.025 11.4072L145.157 12.8705C145.581 13.428 145.795 14.2642 145.795 15.3791C145.795 16.0759 145.606 16.6798 145.229 17.1909L144.309 18.4452H140.701C140.136 18.3987 139.381 18.3058 138.438 18.1664L132.638 17.3999C132.025 17.3999 131.53 17.4811 131.152 17.6438C130.775 17.8064 130.444 18.4452 130.163 19.5601C129.88 20.675 129.737 25.7154 129.737 34.6813V57.6063L125.353 59L121.745 57.676L121.038 48.896L120.895 40.1862C120.849 38.5139 120.895 34.4954 121.038 28.1311L121.603 19.9782C121.65 19.142 121.579 18.329 121.392 17.5393C120.589 16.3314 119.553 15.7275 118.279 15.7275L115.874 16.0759L113.045 16.3547C111.252 16.3547 109.578 15.8436 108.023 14.8217L107.174 13.637C107.127 13.4977 107.008 13.0563 106.82 12.3131C106.82 11.5697 107.033 11.0123 107.456 10.6407L108.589 9.66512C109.956 9.66512 112.019 9.81602 114.777 10.1181C117.536 10.42 119.599 10.571 120.967 10.571C121.249 10.571 121.415 10.4083 121.462 10.0832L121.321 9.10765L121.249 8.1321L121.462 6.80812C121.603 6.29703 121.862 5.83256 122.24 5.41446C122.428 5.08924 122.994 4.79885 123.938 4.54343C124.881 4.28788 125.636 3.85813 126.2 3.2543ZM81.4392 3.2543C84.9287 3.2078 88.1117 6.39002 90.9883 12.8009C94.1951 19.9085 96.2464 25.5295 97.1428 29.6641L102.589 54.5403L102.094 56.352C101.857 57.1426 101.528 57.7229 101.104 58.0941C100.679 58.4666 100.231 58.7213 99.7599 58.8606L98.5574 59C97.7549 59 97.1891 58.9544 96.8598 58.8606L95.4451 58.4425V55.2371L95.5159 52.1711C95.6098 48.9657 95.1854 46.6203 94.2427 45.1337C93.299 43.6471 91.3655 42.9039 88.4419 42.9039C80.2367 42.8574 75.1085 43.2871 73.0573 44.193C71.006 45.0989 69.4263 47.0384 68.3181 50.0109C67.2099 52.9845 65.194 55.6793 62.2703 58.0941L60.8557 58.5122L59.2995 58.6516C58.545 58.6516 58.0028 58.4197 57.6726 57.9548C57.5312 57.5367 57.4604 56.9792 57.4604 56.2824C57.4604 54.8887 57.6019 53.5191 57.8848 52.1711C58.2621 50.4062 58.6157 49.0822 58.9459 48.1991C60.0776 45.2731 62.0581 38.5602 64.8875 28.0614C67.1982 19.5136 69.5324 13.0796 71.8901 8.75924C73.8707 5.13573 77.0537 3.30067 81.4392 3.2543ZM30.3115 3.2543C32.6693 3.2543 35.4751 4.46209 38.7288 6.8778C41.9826 9.29339 43.6095 11.9182 43.6095 14.752C43.6095 17.2141 43.2793 19.3046 42.6192 21.0234C42.0533 22.9746 40.7094 24.6933 38.5874 26.18C43.0201 28.2705 46.5803 30.1519 49.2682 31.8243C51.7203 33.3573 52.9699 36.191 53.0171 40.3256C52.404 42.1374 52.0622 43.1593 51.9914 43.3917C51.9207 43.6239 51.6496 44.2045 51.178 45.1337C48.8202 49.8259 45.2128 53.3797 40.3557 55.7946C36.0174 57.9319 30.9953 59 25.2894 59C21.1869 59 17.9096 58.4197 15.4574 57.2579L8.66698 54.0525L7.81818 50.3593L9.02065 48.7566L15.316 49.1747C14.8916 47.2705 14.5379 45.5982 14.255 44.1582C14.0192 43.1361 13.7126 41.5102 13.3354 39.2804C13.0053 37.608 12.8167 35.3316 12.7695 32.4514C12.7223 30.3144 12.9817 28.7814 13.5476 27.8524L15.316 26.18C15.2217 25.7619 15.0095 25.1811 14.6794 24.4379C14.6794 24.3449 14.4672 23.6017 14.0428 22.208C13.6183 20.8144 13.4061 19.0723 13.4061 16.9818C13.4061 7.83005 19.0413 3.2543 30.3115 3.2543ZM485.195 3.25315C487.449 3.28875 489.504 3.59105 491.36 4.16017C494.473 5.08923 496.029 6.57576 496.029 8.61988C496.029 9.64181 495.629 10.7567 494.826 11.9647C494.356 11.9182 493.801 11.8601 493.165 11.7905C492.528 11.7208 492.138 11.6859 491.997 11.6859C491.809 11.6859 491.431 11.6859 490.865 11.6859C490.158 11.6859 489.546 11.6859 489.026 11.6859C485.443 11.6394 482.212 12.1961 479.335 13.356C476.743 14.4231 475.422 16.3016 475.374 18.9917C475.374 20.1516 478.039 22.2392 483.367 25.2545C489.922 28.965 493.482 31.0755 494.048 31.5858C496.877 33.9979 498.317 37.9175 498.363 43.3448C498.41 48.0762 495.982 51.9734 491.077 55.0344C486.833 57.6785 482.189 59 477.143 59C473.371 59 469.704 58.2107 466.144 56.6308C462.584 55.0521 460.803 52.8451 460.803 50.0109V46.6667C460.803 45.4125 461.181 44.7853 461.935 44.7853C468.442 47.9901 475.705 49.5928 483.721 49.5928C485.514 49.2216 486.692 48.1991 487.258 46.5274C487.588 45.5053 487.753 43.8561 487.753 41.5799C487.753 38.0958 485.772 35.4245 481.811 33.5664L470.777 28.4098C466.816 26.0406 464.812 22.8816 464.764 18.933C464.718 15.7275 467.146 12.2666 472.05 8.5502C476.718 5.06605 480.775 3.30067 484.216 3.2543C484.547 3.24847 484.873 3.24808 485.195 3.25315ZM317.749 3.25315C320.003 3.28875 322.058 3.59105 323.915 4.16017C327.028 5.08923 328.582 6.57576 328.582 8.61988C328.582 9.64181 328.183 10.7567 327.381 11.9647C326.909 11.9182 326.355 11.8601 325.718 11.7905C325.082 11.7208 324.692 11.6859 324.552 11.6859C324.363 11.6859 323.985 11.6859 323.419 11.6859C322.712 11.6859 322.099 11.6859 321.58 11.6859C317.997 11.6394 314.766 12.1961 311.891 13.356C309.297 14.4231 307.976 16.3016 307.929 18.9917C307.929 20.1516 310.593 22.2392 315.921 25.2545C322.476 28.965 326.037 31.0755 326.602 31.5858C329.431 33.9979 330.87 37.9175 330.918 43.3448C330.964 48.0762 328.536 51.9734 323.631 55.0344C319.387 57.6785 314.743 59 309.698 59C305.924 59 302.258 58.2107 298.698 56.6308C295.138 55.0521 293.357 52.8451 293.357 50.0109V46.6667C293.357 45.4125 293.735 44.7853 294.489 44.7853C300.996 47.9901 308.259 49.5928 316.275 49.5928C318.068 49.2216 319.247 48.1991 319.811 46.5274C320.142 45.5053 320.308 43.8561 320.308 41.5799C320.308 38.0958 318.326 35.4245 314.366 33.5664L303.332 28.4098C299.369 26.0406 297.366 22.8816 297.319 18.933C297.272 15.7275 299.7 12.2666 304.604 8.5502C309.272 5.06605 313.328 3.30067 316.771 3.2543C317.1 3.24847 317.427 3.24808 317.749 3.25315ZM274.06 2C275.097 2 275.782 2.4181 276.111 3.2543V10.1529C271.725 11.7788 267.647 12.8472 263.874 13.3583C259.96 13.8693 257.744 14.8217 257.226 16.2153C256.801 17.3766 256.542 21.9525 256.447 29.9428C266.35 27.2484 272.669 25.8779 275.404 25.8316C277.808 25.7851 279.011 26.6444 279.011 28.4098C279.011 29.246 278.634 30.6164 277.879 32.5211C273.541 33.6824 269.203 34.8438 264.864 36.0053C258.452 37.817 255.221 39.7216 255.174 41.7193C255.127 44.4136 255.598 46.6203 256.588 48.3385C257.768 50.429 259.63 51.4742 262.178 51.4742C263.308 51.4742 264.923 51.1613 267.022 50.5341C269.121 49.907 270.712 49.57 271.796 49.5231C275.097 49.4306 280.615 50.638 288.348 53.1466L288.631 53.6344C288.772 53.7738 288.843 54.0525 288.843 54.4706C288.843 54.8431 288.655 55.2143 288.277 55.5855C287.379 56.4686 284.805 57.1426 280.553 57.6063C278.239 57.7001 274.744 57.8623 270.068 58.0941C268.792 58.141 267.304 58.2107 265.604 58.3032L250.865 59L247.889 55.6552V44.6459C247.889 41.1153 247.441 39.3267 246.544 39.2804L244.848 39.6985L242.512 40.0469C241.711 40.0469 241.216 40.0236 241.028 39.9772C239.896 39.9307 238.199 39.1642 235.934 37.6777V32.5211C236.926 32.2888 237.421 31.7429 237.421 30.8836C237.421 30.0241 240.509 29.5711 246.686 29.5248C246.686 28.5956 246.662 27.829 246.616 27.2252C246.521 25.6457 246.403 23.7874 246.262 21.6506L245.837 15.1004C245.555 10.8264 247.041 7.621 250.294 5.48415C253.264 3.53302 259.559 2.55747 269.179 2.55747L274.06 2Z" fill="black"/>
</mask>
<g mask="url(#mask0_3_136)">
<path fill-rule="evenodd" clip-rule="evenodd" d="M26.3328 33.0089C24.4995 33.0089 23.054 33.2411 21.9959 33.7057C20.9379 34.1702 20.4088 34.96 20.4088 36.0749V49.1747C20.4088 50.2896 21.2786 50.8471 23.0182 50.8471C24.147 50.8471 25.922 50.5684 28.3432 50.0109C30.7644 49.4534 32.5393 49.1747 33.668 49.1747L38.8162 47.2933C41.8253 46.179 43.7296 44.6226 44.529 42.6251L42.8358 36.7718C41.5199 35.8891 38.8638 35.0297 34.8673 34.1935C31.1058 33.4037 28.261 33.0089 26.3328 33.0089ZM439.911 12.5221C436.894 12.4756 434.594 13.1376 433.015 14.5081C431.436 15.8784 430.74 17.8644 430.928 20.466L431.069 22.4171C431.306 25.576 431.589 27.6897 431.918 28.7582C432.155 29.5014 434.04 29.8964 437.577 29.9428C441.114 29.9892 444.038 29.246 446.348 27.713C448.989 25.9941 450.498 23.4855 450.875 20.1872C449.46 17.3534 448.07 15.4255 446.701 14.4036C445.099 13.1493 442.836 12.5221 439.911 12.5221ZM81.5099 11.895C78.4919 11.895 76.6528 14.7055 75.9927 20.3266C75.3326 25.9476 74.2479 30.0357 72.739 32.5908L75.639 32.1727L77.4074 32.0333L82.0758 32.3818C82.8774 32.4281 83.9856 32.2191 85.4003 31.7546C86.6263 31.3365 88.2297 30.4538 90.2102 29.1067C89.7858 26.1335 88.6776 22.51 86.8857 18.2361C85.1409 14.1015 83.8206 12.011 82.9246 11.9647L82.0051 11.895H81.5099ZM25.6785 10.2814C22.9552 10.3118 21.3872 10.7335 20.9747 11.5466L20.0551 13.9158L20.4088 25.9012C21.9177 25.526 23.8983 25.2214 26.3504 24.9876C28.331 24.7997 29.8871 24.4712 31.0189 24.0023C32.7165 23.3462 34.6028 22.1042 36.6776 20.2764L37.9508 16.6202L36.6776 11.3473C35.593 10.6911 34.2254 10.3394 32.575 10.2923H26.9163C26.4801 10.2806 26.0675 10.2769 25.6785 10.2814ZM439.911 3.2543C444.155 3.2078 448.116 5.25178 451.794 9.38639C455.285 13.335 457.053 17.4463 457.099 21.7203C457.147 26.3657 455.308 30.0822 451.582 32.8695C448.187 35.4245 444.061 36.7253 439.204 36.7718C436.28 36.8181 433.946 36.284 432.201 35.1691L433.616 44.7156C434.135 48.1535 434.347 50.894 434.252 52.9376L434.182 54.61C434.182 54.9825 434.135 55.5159 434.04 56.2127C433.899 57.9788 432.979 58.9075 431.282 59L429.867 58.8606C429.301 58.815 428.735 58.4197 428.169 57.676L426.472 55.5159L423.925 43.4613C423.172 39.8842 422.77 37.2596 422.723 35.5872L422.369 21.7203C422.228 16.5637 424.137 12.1737 428.099 8.5502C431.872 5.06605 435.808 3.30067 439.911 3.2543ZM410.839 3.2543H418.267C418.832 4.13686 419.115 4.857 419.115 5.41446C419.115 5.92543 417.513 6.83131 414.305 8.1321C410.958 9.47926 409.378 11.8253 409.566 15.1701V17.3999L409.92 26.3193C409.92 27.5271 409.968 29.2924 410.061 31.6152C410.298 34.9135 410.44 37.3524 410.486 38.9319C410.486 40.6972 410.722 42.8109 411.193 45.2731C411.335 46.0163 411.642 47.4098 412.113 49.4534C413.716 49.4534 415.437 49.8487 417.276 50.638C418.738 51.2424 419.493 52.1014 419.54 53.2163C419.587 53.7738 419.021 54.9356 417.842 56.7005C417.465 57.3048 417.182 57.7457 416.993 58.0244C416.616 58.5363 416.144 58.8606 415.579 59L412.749 57.8154C411.854 57.5835 410.91 57.4213 409.92 57.3276L402.776 57.7457C399.334 57.9319 396.859 56.7245 395.349 54.1222C395.349 52.1711 396.174 51.0105 397.824 50.638C399.334 50.3137 401.244 50.1503 403.554 50.1503H405.676C405.676 48.1535 405.594 45.1337 405.429 41.0921C405.264 37.0505 405.181 34.0308 405.181 32.0333C405.181 30.779 404.804 27.0394 404.049 20.8144L403.483 16.1456C403.483 14.5196 403.932 12.7312 404.827 10.78H393.934C392.143 10.78 391.246 10.4809 391.246 9.88279C391.341 9.60697 391.401 9.38867 391.424 9.22789C391.447 9.06712 391.624 8.8027 391.954 8.43477L393.156 6.43462C395.373 4.87106 398.602 4.04323 402.847 3.95112C404.875 3.90463 406.219 3.85813 406.878 3.81175C408.624 3.71876 409.944 3.53303 410.839 3.2543ZM382.232 3.2543L385.343 4.29954V20.5357L385.769 43.2523C385.863 47.3401 385.674 50.0578 385.203 51.4045C384.825 52.5195 383.788 53.4494 382.089 54.1919C381.053 54.1919 380.11 53.3101 379.26 51.5439C378.506 49.9653 378.105 47.6886 378.059 44.7156C378.011 42.3464 378.342 40.0701 379.049 37.8867C374.71 37.8867 371.292 38.0493 368.793 38.3745C367.095 38.5602 364.524 38.8854 361.083 39.35C359.055 39.35 356.131 38.9783 352.31 38.2351L352.524 43.1826C352.57 44.2045 352.509 45.6447 352.337 47.5023C352.296 48.3385 352.193 49.4775 352.028 50.9168L351.463 58.7213L346.158 59L345.521 48.4779L346.158 38.2351C344.318 38.2351 342.786 38.3745 341.56 38.6532L339.366 39.6288L338.164 38.7926L335.548 36.7021C336.885 33.9148 338.606 32.0565 340.709 31.1275L345.225 30.0125C345.799 28.2471 346.109 26.4354 346.158 24.5773V8.34114C346.158 6.48289 347.336 5.50733 349.695 5.41446C350.514 5.36797 351.212 5.50733 351.79 5.83256C352.367 6.15766 352.8 6.73844 353.089 7.57463L352.381 9.52576L352.17 11.3375C352.17 12.3131 352.287 13.1725 352.524 13.9158L352.878 16.0063L352.524 17.0515L352.028 29.5944H359.699C362.14 29.5944 363.711 29.4783 364.415 29.246L372.58 28.4098C373.33 28.4098 374.081 28.5309 374.832 28.7734L378.845 30.0822C378.845 27.567 379.102 24.2135 379.619 20.0216L380.464 13.1754V11.0086C380.416 10.5899 380.298 10.0077 380.11 9.26223C380.11 8.74974 380.038 8.19088 379.898 7.58553C379.756 6.98005 379.474 6.16501 379.049 5.14004L378.837 4.30169L382.232 3.2543ZM205.475 3.2543L206.676 3.46334C207.809 3.64908 208.421 4.76401 208.516 6.80812C208.563 7.50495 208.515 8.22497 208.374 8.96829C208.374 9.10766 207.945 10.478 207.088 13.0796C206.897 13.7299 206.564 14.4499 206.087 15.2398L204.587 20.8144L202.089 32.2424C201.375 35.4942 201.017 38.6764 201.017 41.7889C201.017 44.6226 202.341 46.6668 204.987 47.9204C207.493 49.0822 210.872 49.6866 215.127 49.7322C218.53 49.779 222.452 49.4078 226.896 48.6172C227.747 48.4779 228.668 48.2929 229.661 48.0598L230.725 49.0353C231.008 49.3141 231.244 49.9653 231.433 50.9865C231.433 51.3589 231.291 51.8227 231.008 52.3801L230.018 53.7738C222.379 57.2579 213.279 59 202.715 59H200.806C198.023 59 196.054 58.815 194.899 58.4425C193.745 58.0713 192.954 57.1654 192.529 55.7249L193.166 35.5872C193.213 34.2399 193.615 31.4759 194.368 27.2949C195.454 21.395 196.467 16.7263 197.41 13.2886C198.684 8.73593 199.91 5.73957 201.089 4.29954L203.139 3.60271C203.47 3.60271 203.8 3.55621 204.13 3.46334C204.695 3.37034 205.144 3.30067 205.475 3.2543ZM169.155 3.2543C170.57 3.48653 171.537 4.78732 172.056 7.15654C172.622 9.75799 172.999 11.1285 173.188 11.2678L175.45 11.8253L179.13 12.104L183.514 11.895L186.981 11.4072L188.112 12.8705C188.536 13.428 188.749 14.2642 188.749 15.3791C188.749 16.0759 188.56 16.6798 188.184 17.1909L187.264 18.4452H183.655C183.091 18.3987 182.336 18.3058 181.392 18.1664L175.593 17.3999C174.98 17.3999 174.484 17.4811 174.106 17.6438C173.729 17.8064 173.399 18.4452 173.117 19.5601C172.834 20.675 172.692 25.7154 172.692 34.6813V57.6063L168.306 59L164.7 57.676L163.993 48.896L163.85 40.1862C163.804 38.5139 163.85 34.4954 163.993 28.1311L164.559 19.9782C164.605 19.142 164.534 18.329 164.346 17.5393C163.544 16.3314 162.507 15.7275 161.233 15.7275L158.829 16.0759L156 16.3547C154.207 16.3547 152.532 15.8436 150.976 14.8217L150.129 13.637C150.081 13.4977 149.963 13.0563 149.775 12.3131C149.775 11.5697 149.986 11.0123 150.41 10.6407L151.543 9.66512C152.911 9.66512 154.973 9.81602 157.732 10.1181C160.491 10.42 162.554 10.571 163.922 10.571C164.204 10.571 164.369 10.4083 164.417 10.0832L164.276 9.10765L164.204 8.1321L164.417 6.80812C164.559 6.29703 164.817 5.83256 165.194 5.41446C165.383 5.08924 165.949 4.79885 166.891 4.54343C167.835 4.28788 168.59 3.85813 169.155 3.2543ZM126.2 3.2543C127.615 3.48653 128.582 4.78732 129.102 7.15654C129.667 9.75799 130.044 11.1285 130.233 11.2678L132.497 11.8253L136.175 12.104L140.56 11.895L144.025 11.4072L145.157 12.8705C145.581 13.428 145.795 14.2642 145.795 15.3791C145.795 16.0759 145.606 16.6798 145.229 17.1909L144.309 18.4452H140.701C140.136 18.3987 139.381 18.3058 138.438 18.1664L132.638 17.3999C132.025 17.3999 131.53 17.4811 131.152 17.6438C130.775 17.8064 130.444 18.4452 130.163 19.5601C129.88 20.675 129.737 25.7154 129.737 34.6813V57.6063L125.353 59L121.745 57.676L121.038 48.896L120.895 40.1862C120.849 38.5139 120.895 34.4954 121.038 28.1311L121.603 19.9782C121.65 19.142 121.579 18.329 121.392 17.5393C120.589 16.3314 119.553 15.7275 118.279 15.7275L115.874 16.0759L113.045 16.3547C111.252 16.3547 109.578 15.8436 108.023 14.8217L107.174 13.637C107.127 13.4977 107.008 13.0563 106.82 12.3131C106.82 11.5697 107.033 11.0123 107.456 10.6407L108.589 9.66512C109.956 9.66512 112.019 9.81602 114.777 10.1181C117.536 10.42 119.599 10.571 120.967 10.571C121.249 10.571 121.415 10.4083 121.462 10.0832L121.321 9.10765L121.249 8.1321L121.462 6.80812C121.603 6.29703 121.862 5.83256 122.24 5.41446C122.428 5.08924 122.994 4.79885 123.938 4.54343C124.881 4.28788 125.636 3.85813 126.2 3.2543ZM81.4392 3.2543C84.9287 3.2078 88.1117 6.39002 90.9883 12.8009C94.1951 19.9085 96.2464 25.5295 97.1428 29.6641L102.589 54.5403L102.094 56.352C101.857 57.1426 101.528 57.7229 101.104 58.0941C100.679 58.4666 100.231 58.7213 99.7599 58.8606L98.5574 59C97.7549 59 97.1891 58.9544 96.8598 58.8606L95.4451 58.4425V55.2371L95.5159 52.1711C95.6098 48.9657 95.1854 46.6203 94.2427 45.1337C93.299 43.6471 91.3655 42.9039 88.4419 42.9039C80.2367 42.8574 75.1085 43.2871 73.0573 44.193C71.006 45.0989 69.4263 47.0384 68.3181 50.0109C67.2099 52.9845 65.194 55.6793 62.2703 58.0941L60.8557 58.5122L59.2995 58.6516C58.545 58.6516 58.0028 58.4197 57.6726 57.9548C57.5312 57.5367 57.4604 56.9792 57.4604 56.2824C57.4604 54.8887 57.6019 53.5191 57.8848 52.1711C58.2621 50.4062 58.6157 49.0822 58.9459 48.1991C60.0776 45.2731 62.0581 38.5602 64.8875 28.0614C67.1982 19.5136 69.5324 13.0796 71.8901 8.75924C73.8707 5.13573 77.0537 3.30067 81.4392 3.2543ZM30.3115 3.2543C32.6693 3.2543 35.4751 4.46209 38.7288 6.8778C41.9826 9.29339 43.6095 11.9182 43.6095 14.752C43.6095 17.2141 43.2793 19.3046 42.6192 21.0234C42.0533 22.9746 40.7094 24.6933 38.5874 26.18C43.0201 28.2705 46.5803 30.1519 49.2682 31.8243C51.7203 33.3573 52.9699 36.191 53.0171 40.3256C52.404 42.1374 52.0622 43.1593 51.9914 43.3917C51.9207 43.6239 51.6496 44.2045 51.178 45.1337C48.8202 49.8259 45.2128 53.3797 40.3557 55.7946C36.0174 57.9319 30.9953 59 25.2894 59C21.1869 59 17.9096 58.4197 15.4574 57.2579L8.66698 54.0525L7.81818 50.3593L9.02065 48.7566L15.316 49.1747C14.8916 47.2705 14.5379 45.5982 14.255 44.1582C14.0192 43.1361 13.7126 41.5102 13.3354 39.2804C13.0053 37.608 12.8167 35.3316 12.7695 32.4514C12.7223 30.3144 12.9817 28.7814 13.5476 27.8524L15.316 26.18C15.2217 25.7619 15.0095 25.1811 14.6794 24.4379C14.6794 24.3449 14.4672 23.6017 14.0428 22.208C13.6183 20.8144 13.4061 19.0723 13.4061 16.9818C13.4061 7.83005 19.0413 3.2543 30.3115 3.2543ZM485.195 3.25315C487.449 3.28875 489.504 3.59105 491.36 4.16017C494.473 5.08923 496.029 6.57576 496.029 8.61988C496.029 9.64181 495.629 10.7567 494.826 11.9647C494.356 11.9182 493.801 11.8601 493.165 11.7905C492.528 11.7208 492.138 11.6859 491.997 11.6859C491.809 11.6859 491.431 11.6859 490.865 11.6859C490.158 11.6859 489.546 11.6859 489.026 11.6859C485.443 11.6394 482.212 12.1961 479.335 13.356C476.743 14.4231 475.422 16.3016 475.374 18.9917C475.374 20.1516 478.039 22.2392 483.367 25.2545C489.922 28.965 493.482 31.0755 494.048 31.5858C496.877 33.9979 498.317 37.9175 498.363 43.3448C498.41 48.0762 495.982 51.9734 491.077 55.0344C486.833 57.6785 482.189 59 477.143 59C473.371 59 469.704 58.2107 466.144 56.6308C462.584 55.0521 460.803 52.8451 460.803 50.0109V46.6667C460.803 45.4125 461.181 44.7853 461.935 44.7853C468.442 47.9901 475.705 49.5928 483.721 49.5928C485.514 49.2216 486.692 48.1991 487.258 46.5274C487.588 45.5053 487.753 43.8561 487.753 41.5799C487.753 38.0958 485.772 35.4245 481.811 33.5664L470.777 28.4098C466.816 26.0406 464.812 22.8816 464.764 18.933C464.718 15.7275 467.146 12.2666 472.05 8.5502C476.718 5.06605 480.775 3.30067 484.216 3.2543C484.547 3.24847 484.873 3.24808 485.195 3.25315ZM317.749 3.25315C320.003 3.28875 322.058 3.59105 323.915 4.16017C327.028 5.08923 328.582 6.57576 328.582 8.61988C328.582 9.64181 328.183 10.7567 327.381 11.9647C326.909 11.9182 326.355 11.8601 325.718 11.7905C325.082 11.7208 324.692 11.6859 324.552 11.6859C324.363 11.6859 323.985 11.6859 323.419 11.6859C322.712 11.6859 322.099 11.6859 321.58 11.6859C317.997 11.6394 314.766 12.1961 311.891 13.356C309.297 14.4231 307.976 16.3016 307.929 18.9917C307.929 20.1516 310.593 22.2392 315.921 25.2545C322.476 28.965 326.037 31.0755 326.602 31.5858C329.431 33.9979 330.87 37.9175 330.918 43.3448C330.964 48.0762 328.536 51.9734 323.631 55.0344C319.387 57.6785 314.743 59 309.698 59C305.924 59 302.258 58.2107 298.698 56.6308C295.138 55.0521 293.357 52.8451 293.357 50.0109V46.6667C293.357 45.4125 293.735 44.7853 294.489 44.7853C300.996 47.9901 308.259 49.5928 316.275 49.5928C318.068 49.2216 319.247 48.1991 319.811 46.5274C320.142 45.5053 320.308 43.8561 320.308 41.5799C320.308 38.0958 318.326 35.4245 314.366 33.5664L303.332 28.4098C299.369 26.0406 297.366 22.8816 297.319 18.933C297.272 15.7275 299.7 12.2666 304.604 8.5502C309.272 5.06605 313.328 3.30067 316.771 3.2543C317.1 3.24847 317.427 3.24808 317.749 3.25315ZM274.06 2C275.097 2 275.782 2.4181 276.111 3.2543V10.1529C271.725 11.7788 267.647 12.8472 263.874 13.3583C259.96 13.8693 257.744 14.8217 257.226 16.2153C256.801 17.3766 256.542 21.9525 256.447 29.9428C266.35 27.2484 272.669 25.8779 275.404 25.8316C277.808 25.7851 279.011 26.6444 279.011 28.4098C279.011 29.246 278.634 30.6164 277.879 32.5211C273.541 33.6824 269.203 34.8438 264.864 36.0053C258.452 37.817 255.221 39.7216 255.174 41.7193C255.127 44.4136 255.598 46.6203 256.588 48.3385C257.768 50.429 259.63 51.4742 262.178 51.4742C263.308 51.4742 264.923 51.1613 267.022 50.5341C269.121 49.907 270.712 49.57 271.796 49.5231C275.097 49.4306 280.615 50.638 288.348 53.1466L288.631 53.6344C288.772 53.7738 288.843 54.0525 288.843 54.4706C288.843 54.8431 288.655 55.2143 288.277 55.5855C287.379 56.4686 284.805 57.1426 280.553 57.6063C278.239 57.7001 274.744 57.8623 270.068 58.0941C268.792 58.141 267.304 58.2107 265.604 58.3032L250.865 59L247.889 55.6552V44.6459C247.889 41.1153 247.441 39.3267 246.544 39.2804L244.848 39.6985L242.512 40.0469C241.711 40.0469 241.216 40.0236 241.028 39.9772C239.896 39.9307 238.199 39.1642 235.934 37.6777V32.5211C236.926 32.2888 237.421 31.7429 237.421 30.8836C237.421 30.0241 240.509 29.5711 246.686 29.5248C246.686 28.5956 246.662 27.829 246.616 27.2252C246.521 25.6457 246.403 23.7874 246.262 21.6506L245.837 15.1004C245.555 10.8264 247.041 7.621 250.294 5.48415C253.264 3.53302 259.559 2.55747 269.179 2.55747L274.06 2Z" stroke="#231F20" stroke-width="4" stroke-miterlimit="10" stroke-linejoin="round"/>
</g>
<mask id="mask1_3_136" style="mask-type:alpha" maskUnits="userSpaceOnUse" x="7" y="2" width="492" height="57">
<path fill-rule="evenodd" clip-rule="evenodd" d="M26.3328 33.0089C24.4995 33.0089 23.054 33.2411 21.9959 33.7057C20.9379 34.1702 20.4088 34.96 20.4088 36.0749V49.1747C20.4088 50.2896 21.2786 50.8471 23.0182 50.8471C24.147 50.8471 25.9221 50.5684 28.3432 50.0109C30.7644 49.4534 32.5393 49.1747 33.6681 49.1747L38.8162 47.2933C41.8253 46.179 43.7296 44.6226 44.529 42.6251L42.8358 36.7718C41.5199 35.8891 38.8638 35.0297 34.8673 34.1935C31.1058 33.4037 28.261 33.0089 26.3328 33.0089ZM439.911 12.5221C436.894 12.4756 434.594 13.1376 433.015 14.5081C431.436 15.8784 430.74 17.8644 430.928 20.466L431.069 22.4171C431.306 25.576 431.589 27.6897 431.918 28.7582C432.155 29.5014 434.04 29.8964 437.577 29.9428C441.114 29.9892 444.038 29.246 446.348 27.713C448.989 25.9941 450.498 23.4855 450.875 20.1872C449.46 17.3534 448.07 15.4255 446.701 14.4036C445.099 13.1493 442.836 12.5221 439.911 12.5221ZM81.51 11.895C78.4919 11.895 76.6529 14.7055 75.9927 20.3266C75.3326 25.9476 74.2479 30.0357 72.739 32.5908L75.639 32.1727L77.4074 32.0333L82.0758 32.3818C82.8774 32.4281 83.9856 32.2191 85.4003 31.7546C86.6263 31.3365 88.2297 30.4538 90.2102 29.1067C89.7858 26.1335 88.6776 22.51 86.8857 18.2361C85.1409 14.1015 83.8206 12.011 82.9246 11.9647L82.0051 11.895H81.51ZM25.6785 10.2814C22.9552 10.3118 21.3872 10.7335 20.9747 11.5466L20.0551 13.9158L20.4088 25.9012C21.9178 25.526 23.8983 25.2214 26.3504 24.9876C28.331 24.7997 29.8871 24.4712 31.0189 24.0023C32.7165 23.3462 34.6028 22.1042 36.6776 20.2764L37.9508 16.6202L36.6776 11.3473C35.593 10.6911 34.2254 10.3394 32.575 10.2923H26.9163C26.4801 10.2806 26.0675 10.2769 25.6785 10.2814ZM439.911 3.2543C444.155 3.2078 448.116 5.25178 451.794 9.38639C455.285 13.335 457.053 17.4463 457.099 21.7203C457.147 26.3657 455.308 30.0822 451.582 32.8695C448.187 35.4245 444.061 36.7253 439.204 36.7718C436.28 36.8181 433.946 36.284 432.201 35.1691L433.616 44.7156C434.135 48.1535 434.348 50.894 434.252 52.9376L434.182 54.61C434.182 54.9825 434.135 55.5159 434.04 56.2127C433.899 57.9788 432.979 58.9075 431.282 59L429.867 58.8606C429.301 58.815 428.735 58.4197 428.169 57.676L426.472 55.5159L423.925 43.4613C423.172 39.8842 422.77 37.2596 422.723 35.5872L422.369 21.7203C422.228 16.5637 424.137 12.1737 428.099 8.5502C431.872 5.06605 435.808 3.30067 439.911 3.2543ZM410.839 3.2543H418.267C418.832 4.13686 419.115 4.857 419.115 5.41446C419.115 5.92543 417.513 6.83131 414.305 8.1321C410.958 9.47926 409.379 11.8253 409.566 15.1701V17.3999L409.92 26.3193C409.92 27.5271 409.968 29.2924 410.061 31.6152C410.298 34.9135 410.44 37.3524 410.486 38.9319C410.486 40.6972 410.722 42.8109 411.193 45.2731C411.335 46.0163 411.642 47.4098 412.113 49.4534C413.716 49.4534 415.437 49.8487 417.276 50.638C418.738 51.2424 419.493 52.1014 419.54 53.2163C419.587 53.7738 419.021 54.9356 417.842 56.7005C417.465 57.3048 417.182 57.7457 416.993 58.0244C416.616 58.5363 416.144 58.8606 415.579 59L412.749 57.8154C411.854 57.5835 410.91 57.4213 409.92 57.3276L402.776 57.7457C399.334 57.9319 396.859 56.7245 395.349 54.1222C395.349 52.1711 396.174 51.0105 397.824 50.638C399.334 50.3137 401.244 50.1503 403.554 50.1503H405.676C405.676 48.1535 405.594 45.1337 405.429 41.0921C405.264 37.0505 405.181 34.0308 405.181 32.0333C405.181 30.779 404.804 27.0394 404.049 20.8144L403.483 16.1456C403.483 14.5196 403.932 12.7312 404.827 10.78H393.934C392.143 10.78 391.246 10.4809 391.246 9.88279C391.341 9.60697 391.401 9.38867 391.424 9.22789C391.447 9.06712 391.624 8.8027 391.954 8.43477L393.156 6.43462C395.373 4.87106 398.603 4.04323 402.847 3.95112C404.875 3.90463 406.219 3.85813 406.878 3.81175C408.624 3.71876 409.944 3.53303 410.839 3.2543ZM382.232 3.2543L385.343 4.29954V20.5357L385.769 43.2523C385.863 47.3401 385.674 50.0578 385.203 51.4045C384.825 52.5195 383.788 53.4494 382.089 54.1919C381.053 54.1919 380.11 53.3101 379.26 51.5439C378.506 49.9653 378.105 47.6886 378.059 44.7156C378.011 42.3464 378.342 40.0701 379.049 37.8867C374.71 37.8867 371.292 38.0493 368.793 38.3745C367.095 38.5602 364.524 38.8854 361.083 39.35C359.055 39.35 356.131 38.9783 352.31 38.2351L352.524 43.1826C352.57 44.2045 352.509 45.6447 352.337 47.5023C352.296 48.3385 352.193 49.4775 352.028 50.9168L351.463 58.7213L346.158 59L345.521 48.4779L346.158 38.2351C344.318 38.2351 342.786 38.3745 341.56 38.6532L339.366 39.6288L338.164 38.7926L335.548 36.7021C336.885 33.9148 338.606 32.0565 340.709 31.1275L345.226 30.0125C345.799 28.2471 346.109 26.4354 346.158 24.5773V8.34114C346.158 6.48289 347.336 5.50733 349.695 5.41446C350.514 5.36797 351.212 5.50733 351.79 5.83256C352.367 6.15766 352.8 6.73844 353.089 7.57463L352.381 9.52576L352.17 11.3375C352.17 12.3131 352.287 13.1725 352.524 13.9158L352.878 16.0063L352.524 17.0515L352.028 29.5944H359.699C362.14 29.5944 363.711 29.4783 364.415 29.246L372.58 28.4098C373.33 28.4098 374.081 28.5309 374.832 28.7734L378.845 30.0822C378.845 27.567 379.102 24.2135 379.619 20.0216L380.464 13.1754V11.0086C380.416 10.5899 380.298 10.0077 380.11 9.26223C380.11 8.74974 380.038 8.19088 379.898 7.58553C379.756 6.98005 379.474 6.16501 379.049 5.14004L378.837 4.30169L382.232 3.2543ZM205.475 3.2543L206.676 3.46334C207.809 3.64908 208.421 4.76401 208.516 6.80812C208.563 7.50495 208.515 8.22497 208.374 8.96829C208.374 9.10766 207.945 10.478 207.088 13.0796C206.897 13.7299 206.564 14.4499 206.087 15.2398L204.587 20.8144L202.089 32.2424C201.375 35.4942 201.017 38.6764 201.017 41.7889C201.017 44.6226 202.341 46.6668 204.987 47.9204C207.493 49.0822 210.872 49.6866 215.127 49.7322C218.53 49.779 222.452 49.4078 226.896 48.6172C227.747 48.4779 228.668 48.2929 229.661 48.0598L230.725 49.0353C231.008 49.3141 231.244 49.9653 231.433 50.9865C231.433 51.3589 231.291 51.8227 231.008 52.3801L230.018 53.7738C222.379 57.2579 213.279 59 202.715 59H200.806C198.023 59 196.054 58.815 194.899 58.4425C193.745 58.0713 192.954 57.1654 192.529 55.7249L193.166 35.5872C193.213 34.2399 193.615 31.4759 194.368 27.2949C195.454 21.395 196.467 16.7263 197.41 13.2886C198.684 8.73593 199.91 5.73957 201.089 4.29954L203.139 3.60271C203.47 3.60271 203.8 3.55621 204.13 3.46334C204.695 3.37034 205.144 3.30067 205.475 3.2543ZM169.155 3.2543C170.57 3.48653 171.537 4.78732 172.056 7.15654C172.622 9.75799 172.999 11.1285 173.188 11.2678L175.45 11.8253L179.13 12.104L183.514 11.895L186.981 11.4072L188.112 12.8705C188.536 13.428 188.749 14.2642 188.749 15.3791C188.749 16.0759 188.56 16.6798 188.184 17.1909L187.264 18.4452H183.655C183.091 18.3987 182.336 18.3058 181.392 18.1664L175.593 17.3999C174.98 17.3999 174.484 17.4811 174.106 17.6438C173.729 17.8064 173.399 18.4452 173.117 19.5601C172.834 20.675 172.692 25.7154 172.692 34.6813V57.6063L168.306 59L164.7 57.676L163.993 48.896L163.85 40.1862C163.804 38.5139 163.85 34.4954 163.993 28.1311L164.559 19.9782C164.605 19.142 164.534 18.329 164.346 17.5393C163.544 16.3314 162.507 15.7275 161.233 15.7275L158.829 16.0759L156 16.3547C154.207 16.3547 152.532 15.8436 150.976 14.8217L150.129 13.637C150.081 13.4977 149.963 13.0563 149.775 12.3131C149.775 11.5697 149.986 11.0123 150.41 10.6407L151.544 9.66512C152.911 9.66512 154.973 9.81602 157.732 10.1181C160.491 10.42 162.554 10.571 163.922 10.571C164.204 10.571 164.369 10.4083 164.417 10.0832L164.276 9.10765L164.204 8.1321L164.417 6.80812C164.559 6.29703 164.817 5.83256 165.194 5.41446C165.383 5.08924 165.949 4.79885 166.891 4.54343C167.835 4.28788 168.59 3.85813 169.155 3.2543ZM126.2 3.2543C127.615 3.48653 128.582 4.78732 129.102 7.15654C129.667 9.75799 130.044 11.1285 130.233 11.2678L132.497 11.8253L136.175 12.104L140.56 11.895L144.025 11.4072L145.157 12.8705C145.581 13.428 145.795 14.2642 145.795 15.3791C145.795 16.0759 145.606 16.6798 145.229 17.1909L144.309 18.4452H140.701C140.136 18.3987 139.381 18.3058 138.438 18.1664L132.638 17.3999C132.025 17.3999 131.53 17.4811 131.152 17.6438C130.775 17.8064 130.444 18.4452 130.163 19.5601C129.88 20.675 129.737 25.7154 129.737 34.6813V57.6063L125.353 59L121.745 57.676L121.038 48.896L120.895 40.1862C120.849 38.5139 120.895 34.4954 121.038 28.1311L121.603 19.9782C121.65 19.142 121.579 18.329 121.392 17.5393C120.589 16.3314 119.553 15.7275 118.279 15.7275L115.874 16.0759L113.045 16.3547C111.252 16.3547 109.578 15.8436 108.023 14.8217L107.174 13.637C107.127 13.4977 107.008 13.0563 106.82 12.3131C106.82 11.5697 107.033 11.0123 107.456 10.6407L108.589 9.66512C109.956 9.66512 112.019 9.81602 114.777 10.1181C117.536 10.42 119.599 10.571 120.967 10.571C121.249 10.571 121.415 10.4083 121.462 10.0832L121.321 9.10765L121.249 8.1321L121.462 6.80812C121.603 6.29703 121.862 5.83256 122.24 5.41446C122.428 5.08924 122.994 4.79885 123.938 4.54343C124.881 4.28788 125.636 3.85813 126.2 3.2543ZM81.4392 3.2543C84.9287 3.2078 88.1117 6.39002 90.9883 12.8009C94.1951 19.9085 96.2464 25.5295 97.1428 29.6641L102.589 54.5403L102.094 56.352C101.858 57.1426 101.528 57.7229 101.104 58.0941C100.679 58.4666 100.231 58.7213 99.7599 58.8606L98.5574 59C97.7549 59 97.1891 58.9544 96.8598 58.8606L95.4452 58.4425V55.2371L95.5159 52.1711C95.6098 48.9657 95.1854 46.6203 94.2427 45.1337C93.299 43.6471 91.3655 42.9039 88.4419 42.9039C80.2368 42.8574 75.1085 43.2871 73.0573 44.193C71.006 45.0989 69.4263 47.0384 68.3181 50.0109C67.2099 52.9845 65.194 55.6793 62.2704 58.0941L60.8557 58.5122L59.2995 58.6516C58.545 58.6516 58.0028 58.4197 57.6727 57.9548C57.5312 57.5367 57.4605 56.9792 57.4605 56.2824C57.4605 54.8887 57.6019 53.5191 57.8849 52.1711C58.2621 50.4062 58.6157 49.0822 58.9459 48.1991C60.0776 45.2731 62.0582 38.5602 64.8875 28.0614C67.1982 19.5136 69.5324 13.0796 71.8902 8.75924C73.8707 5.13573 77.0537 3.30067 81.4392 3.2543ZM30.3115 3.2543C32.6693 3.2543 35.4751 4.46209 38.7289 6.8778C41.9826 9.29339 43.6095 11.9182 43.6095 14.752C43.6095 17.2141 43.2794 19.3046 42.6192 21.0234C42.0534 22.9746 40.7094 24.6933 38.5874 26.18C43.0201 28.2705 46.5803 30.1519 49.2682 31.8243C51.7204 33.3573 52.9699 36.191 53.0171 40.3256C52.404 42.1374 52.0622 43.1593 51.9915 43.3917C51.9207 43.6239 51.6496 44.2045 51.178 45.1337C48.8203 49.8259 45.2128 53.3797 40.3557 55.7946C36.0174 57.9319 30.9953 59 25.2894 59C21.1869 59 17.9096 58.4197 15.4574 57.2579L8.66699 54.0525L7.81818 50.3593L9.02066 48.7566L15.316 49.1747C14.8916 47.2705 14.5379 45.5982 14.255 44.1582C14.0192 43.1361 13.7126 41.5102 13.3354 39.2804C13.0053 37.608 12.8168 35.3316 12.7696 32.4514C12.7224 30.3144 12.9818 28.7814 13.5476 27.8524L15.316 26.18C15.2217 25.7619 15.0095 25.1811 14.6794 24.4379C14.6794 24.3449 14.4672 23.6017 14.0428 22.208C13.6184 20.8144 13.4062 19.0723 13.4062 16.9818C13.4062 7.83005 19.0413 3.2543 30.3115 3.2543ZM485.195 3.25315C487.449 3.28875 489.504 3.59105 491.36 4.16017C494.473 5.08923 496.029 6.57576 496.029 8.61988C496.029 9.64181 495.629 10.7567 494.826 11.9647C494.356 11.9182 493.801 11.8601 493.165 11.7905C492.528 11.7208 492.138 11.6859 491.997 11.6859C491.809 11.6859 491.431 11.6859 490.865 11.6859C490.158 11.6859 489.546 11.6859 489.026 11.6859C485.443 11.6394 482.212 12.1961 479.335 13.356C476.743 14.4231 475.422 16.3016 475.374 18.9917C475.374 20.1516 478.039 22.2392 483.367 25.2545C489.922 28.965 493.482 31.0755 494.048 31.5858C496.877 33.9979 498.317 37.9175 498.363 43.3448C498.411 48.0762 495.982 51.9734 491.077 55.0344C486.833 57.6785 482.189 59 477.143 59C473.371 59 469.704 58.2107 466.144 56.6308C462.584 55.0521 460.803 52.8451 460.803 50.0109V46.6667C460.803 45.4125 461.181 44.7853 461.935 44.7853C468.442 47.9901 475.705 49.5928 483.721 49.5928C485.514 49.2216 486.692 48.1991 487.258 46.5274C487.588 45.5053 487.753 43.8561 487.753 41.5799C487.753 38.0958 485.772 35.4245 481.811 33.5664L470.777 28.4098C466.816 26.0406 464.812 22.8816 464.764 18.933C464.718 15.7275 467.146 12.2666 472.05 8.5502C476.718 5.06605 480.775 3.30067 484.216 3.2543C484.547 3.24847 484.873 3.24808 485.195 3.25315ZM317.749 3.25315C320.003 3.28875 322.058 3.59105 323.915 4.16017C327.028 5.08923 328.583 6.57576 328.583 8.61988C328.583 9.64181 328.183 10.7567 327.381 11.9647C326.909 11.9182 326.355 11.8601 325.718 11.7905C325.082 11.7208 324.692 11.6859 324.552 11.6859C324.363 11.6859 323.985 11.6859 323.419 11.6859C322.712 11.6859 322.099 11.6859 321.58 11.6859C317.997 11.6394 314.766 12.1961 311.891 13.356C309.297 14.4231 307.976 16.3016 307.929 18.9917C307.929 20.1516 310.593 22.2392 315.921 25.2545C322.476 28.965 326.037 31.0755 326.602 31.5858C329.431 33.9979 330.87 37.9175 330.918 43.3448C330.964 48.0762 328.536 51.9734 323.631 55.0344C319.387 57.6785 314.743 59 309.698 59C305.925 59 302.258 58.2107 298.698 56.6308C295.138 55.0521 293.357 52.8451 293.357 50.0109V46.6667C293.357 45.4125 293.735 44.7853 294.489 44.7853C300.996 47.9901 308.259 49.5928 316.275 49.5928C318.068 49.2216 319.247 48.1991 319.812 46.5274C320.142 45.5053 320.308 43.8561 320.308 41.5799C320.308 38.0958 318.326 35.4245 314.366 33.5664L303.332 28.4098C299.369 26.0406 297.366 22.8816 297.319 18.933C297.272 15.7275 299.7 12.2666 304.604 8.5502C309.272 5.06605 313.328 3.30067 316.771 3.2543C317.1 3.24847 317.427 3.24808 317.749 3.25315ZM274.06 2C275.097 2 275.782 2.4181 276.111 3.2543V10.1529C271.725 11.7788 267.647 12.8472 263.874 13.3583C259.96 13.8693 257.744 14.8217 257.226 16.2153C256.801 17.3766 256.542 21.9525 256.447 29.9428C266.35 27.2484 272.669 25.8779 275.404 25.8316C277.808 25.7851 279.011 26.6444 279.011 28.4098C279.011 29.246 278.634 30.6164 277.879 32.5211C273.541 33.6824 269.203 34.8438 264.864 36.0053C258.452 37.817 255.221 39.7216 255.174 41.7193C255.127 44.4136 255.598 46.6203 256.588 48.3385C257.768 50.429 259.63 51.4742 262.178 51.4742C263.308 51.4742 264.923 51.1613 267.022 50.5341C269.121 49.907 270.712 49.57 271.796 49.5231C275.097 49.4306 280.615 50.638 288.348 53.1466L288.631 53.6344C288.772 53.7738 288.843 54.0525 288.843 54.4706C288.843 54.8431 288.655 55.2143 288.277 55.5855C287.379 56.4686 284.805 57.1426 280.553 57.6063C278.239 57.7001 274.744 57.8623 270.068 58.0941C268.792 58.141 267.304 58.2107 265.604 58.3032L250.865 59L247.889 55.6552V44.6459C247.889 41.1153 247.441 39.3267 246.544 39.2804L244.848 39.6985L242.512 40.0469C241.711 40.0469 241.216 40.0236 241.028 39.9772C239.896 39.9307 238.199 39.1642 235.934 37.6777V32.5211C236.926 32.2888 237.421 31.7429 237.421 30.8836C237.421 30.0241 240.509 29.5711 246.686 29.5248C246.686 28.5956 246.662 27.829 246.616 27.2252C246.521 25.6457 246.403 23.7874 246.262 21.6506L245.837 15.1004C245.555 10.8264 247.041 7.621 250.294 5.48415C253.264 3.53302 259.559 2.55747 269.179 2.55747L274.06 2Z" fill="white"/>
</mask>
<g mask="url(#mask1_3_136)">
<path fill-rule="evenodd" clip-rule="evenodd" d="M26.3328 33.0089C24.4995 33.0089 23.054 33.2411 21.9959 33.7057C20.9379 34.1702 20.4088 34.96 20.4088 36.0749V49.1747C20.4088 50.2896 21.2786 50.8471 23.0182 50.8471C24.147 50.8471 25.9221 50.5684 28.3432 50.0109C30.7644 49.4534 32.5393 49.1747 33.6681 49.1747L38.8162 47.2933C41.8253 46.179 43.7296 44.6226 44.529 42.6251L42.8358 36.7718C41.5199 35.8891 38.8638 35.0297 34.8673 34.1935C31.1058 33.4037 28.261 33.0089 26.3328 33.0089ZM439.911 12.5221C436.894 12.4756 434.594 13.1376 433.015 14.5081C431.436 15.8784 430.74 17.8644 430.928 20.466L431.069 22.4171C431.306 25.576 431.589 27.6897 431.918 28.7582C432.155 29.5014 434.04 29.8964 437.577 29.9428C441.114 29.9892 444.038 29.246 446.348 27.713C448.989 25.9941 450.498 23.4855 450.875 20.1872C449.46 17.3534 448.07 15.4255 446.701 14.4036C445.099 13.1493 442.836 12.5221 439.911 12.5221ZM81.51 11.895C78.4919 11.895 76.6529 14.7055 75.9927 20.3266C75.3326 25.9476 74.2479 30.0357 72.739 32.5908L75.639 32.1727L77.4074 32.0333L82.0758 32.3818C82.8774 32.4281 83.9856 32.2191 85.4003 31.7546C86.6263 31.3365 88.2297 30.4538 90.2102 29.1067C89.7858 26.1335 88.6776 22.51 86.8857 18.2361C85.1409 14.1015 83.8206 12.011 82.9246 11.9647L82.0051 11.895H81.51ZM25.6785 10.2814C22.9552 10.3118 21.3872 10.7335 20.9747 11.5466L20.0551 13.9158L20.4088 25.9012C21.9178 25.526 23.8983 25.2214 26.3504 24.9876C28.331 24.7997 29.8871 24.4712 31.0189 24.0023C32.7165 23.3462 34.6028 22.1042 36.6776 20.2764L37.9508 16.6202L36.6776 11.3473C35.593 10.6911 34.2254 10.3394 32.575 10.2923H26.9163C26.4801 10.2806 26.0675 10.2769 25.6785 10.2814ZM439.911 3.2543C444.155 3.2078 448.116 5.25178 451.794 9.38639C455.285 13.335 457.053 17.4463 457.099 21.7203C457.147 26.3657 455.308 30.0822 451.582 32.8695C448.187 35.4245 444.061 36.7253 439.204 36.7718C436.28 36.8181 433.946 36.284 432.201 35.1691L433.616 44.7156C434.135 48.1535 434.348 50.894 434.252 52.9376L434.182 54.61C434.182 54.9825 434.135 55.5159 434.04 56.2127C433.899 57.9788 432.979 58.9075 431.282 59L429.867 58.8606C429.301 58.815 428.735 58.4197 428.169 57.676L426.472 55.5159L423.925 43.4613C423.172 39.8842 422.77 37.2596 422.723 35.5872L422.369 21.7203C422.228 16.5637 424.137 12.1737 428.099 8.5502C431.872 5.06605 435.808 3.30067 439.911 3.2543ZM410.839 3.2543H418.267C418.832 4.13686 419.115 4.857 419.115 5.41446C419.115 5.92543 417.513 6.83131 414.305 8.1321C410.958 9.47926 409.379 11.8253 409.566 15.1701V17.3999L409.92 26.3193C409.92 27.5271 409.968 29.2924 410.061 31.6152C410.298 34.9135 410.44 37.3524 410.486 38.9319C410.486 40.6972 410.722 42.8109 411.193 45.2731C411.335 46.0163 411.642 47.4098 412.113 49.4534C413.716 49.4534 415.437 49.8487 417.276 50.638C418.738 51.2424 419.493 52.1014 419.54 53.2163C419.587 53.7738 419.021 54.9356 417.842 56.7005C417.465 57.3048 417.182 57.7457 416.993 58.0244C416.616 58.5363 416.144 58.8606 415.579 59L412.749 57.8154C411.854 57.5835 410.91 57.4213 409.92 57.3276L402.776 57.7457C399.334 57.9319 396.859 56.7245 395.349 54.1222C395.349 52.1711 396.174 51.0105 397.824 50.638C399.334 50.3137 401.244 50.1503 403.554 50.1503H405.676C405.676 48.1535 405.594 45.1337 405.429 41.0921C405.264 37.0505 405.181 34.0308 405.181 32.0333C405.181 30.779 404.804 27.0394 404.049 20.8144L403.483 16.1456C403.483 14.5196 403.932 12.7312 404.827 10.78H393.934C392.143 10.78 391.246 10.4809 391.246 9.88279C391.341 9.60697 391.401 9.38867 391.424 9.22789C391.447 9.06712 391.624 8.8027 391.954 8.43477L393.156 6.43462C395.373 4.87106 398.603 4.04323 402.847 3.95112C404.875 3.90463 406.219 3.85813 406.878 3.81175C408.624 3.71876 409.944 3.53303 410.839 3.2543ZM382.232 3.2543L385.343 4.29954V20.5357L385.769 43.2523C385.863 47.3401 385.674 50.0578 385.203 51.4045C384.825 52.5195 383.788 53.4494 382.089 54.1919C381.053 54.1919 380.11 53.3101 379.26 51.5439C378.506 49.9653 378.105 47.6886 378.059 44.7156C378.011 42.3464 378.342 40.0701 379.049 37.8867C374.71 37.8867 371.292 38.0493 368.793 38.3745C367.095 38.5602 364.524 38.8854 361.083 39.35C359.055 39.35 356.131 38.9783 352.31 38.2351L352.524 43.1826C352.57 44.2045 352.509 45.6447 352.337 47.5023C352.296 48.3385 352.193 49.4775 352.028 50.9168L351.463 58.7213L346.158 59L345.521 48.4779L346.158 38.2351C344.318 38.2351 342.786 38.3745 341.56 38.6532L339.366 39.6288L338.164 38.7926L335.548 36.7021C336.885 33.9148 338.606 32.0565 340.709 31.1275L345.226 30.0125C345.799 28.2471 346.109 26.4354 346.158 24.5773V8.34114C346.158 6.48289 347.336 5.50733 349.695 5.41446C350.514 5.36797 351.212 5.50733 351.79 5.83256C352.367 6.15766 352.8 6.73844 353.089 7.57463L352.381 9.52576L352.17 11.3375C352.17 12.3131 352.287 13.1725 352.524 13.9158L352.878 16.0063L352.524 17.0515L352.028 29.5944H359.699C362.14 29.5944 363.711 29.4783 364.415 29.246L372.58 28.4098C373.33 28.4098 374.081 28.5309 374.832 28.7734L378.845 30.0822C378.845 27.567 379.102 24.2135 379.619 20.0216L380.464 13.1754V11.0086C380.416 10.5899 380.298 10.0077 380.11 9.26223C380.11 8.74974 380.038 8.19088 379.898 7.58553C379.756 6.98005 379.474 6.16501 379.049 5.14004L378.837 4.30169L382.232 3.2543ZM205.475 3.2543L206.676 3.46334C207.809 3.64908 208.421 4.76401 208.516 6.80812C208.563 7.50495 208.515 8.22497 208.374 8.96829C208.374 9.10766 207.945 10.478 207.088 13.0796C206.897 13.7299 206.564 14.4499 206.087 15.2398L204.587 20.8144L202.089 32.2424C201.375 35.4942 201.017 38.6764 201.017 41.7889C201.017 44.6226 202.341 46.6668 204.987 47.9204C207.493 49.0822 210.872 49.6866 215.127 49.7322C218.53 49.779 222.452 49.4078 226.896 48.6172C227.747 48.4779 228.668 48.2929 229.661 48.0598L230.725 49.0353C231.008 49.3141 231.244 49.9653 231.433 50.9865C231.433 51.3589 231.291 51.8227 231.008 52.3801L230.018 53.7738C222.379 57.2579 213.279 59 202.715 59H200.806C198.023 59 196.054 58.815 194.899 58.4425C193.745 58.0713 192.954 57.1654 192.529 55.7249L193.166 35.5872C193.213 34.2399 193.615 31.4759 194.368 27.2949C195.454 21.395 196.467 16.7263 197.41 13.2886C198.684 8.73593 199.91 5.73957 201.089 4.29954L203.139 3.60271C203.47 3.60271 203.8 3.55621 204.13 3.46334C204.695 3.37034 205.144 3.30067 205.475 3.2543ZM169.155 3.2543C170.57 3.48653 171.537 4.78732 172.056 7.15654C172.622 9.75799 172.999 11.1285 173.188 11.2678L175.45 11.8253L179.13 12.104L183.514 11.895L186.981 11.4072L188.112 12.8705C188.536 13.428 188.749 14.2642 188.749 15.3791C188.749 16.0759 188.56 16.6798 188.184 17.1909L187.264 18.4452H183.655C183.091 18.3987 182.336 18.3058 181.392 18.1664L175.593 17.3999C174.98 17.3999 174.484 17.4811 174.106 17.6438C173.729 17.8064 173.399 18.4452 173.117 19.5601C172.834 20.675 172.692 25.7154 172.692 34.6813V57.6063L168.306 59L164.7 57.676L163.993 48.896L163.85 40.1862C163.804 38.5139 163.85 34.4954 163.993 28.1311L164.559 19.9782C164.605 19.142 164.534 18.329 164.346 17.5393C163.544 16.3314 162.507 15.7275 161.233 15.7275L158.829 16.0759L156 16.3547C154.207 16.3547 152.532 15.8436 150.976 14.8217L150.129 13.637C150.081 13.4977 149.963 13.0563 149.775 12.3131C149.775 11.5697 149.986 11.0123 150.41 10.6407L151.544 9.66512C152.911 9.66512 154.973 9.81602 157.732 10.1181C160.491 10.42 162.554 10.571 163.922 10.571C164.204 10.571 164.369 10.4083 164.417 10.0832L164.276 9.10765L164.204 8.1321L164.417 6.80812C164.559 6.29703 164.817 5.83256 165.194 5.41446C165.383 5.08924 165.949 4.79885 166.891 4.54343C167.835 4.28788 168.59 3.85813 169.155 3.2543ZM126.2 3.2543C127.615 3.48653 128.582 4.78732 129.102 7.15654C129.667 9.75799 130.044 11.1285 130.233 11.2678L132.497 11.8253L136.175 12.104L140.56 11.895L144.025 11.4072L145.157 12.8705C145.581 13.428 145.795 14.2642 145.795 15.3791C145.795 16.0759 145.606 16.6798 145.229 17.1909L144.309 18.4452H140.701C140.136 18.3987 139.381 18.3058 138.438 18.1664L132.638 17.3999C132.025 17.3999 131.53 17.4811 131.152 17.6438C130.775 17.8064 130.444 18.4452 130.163 19.5601C129.88 20.675 129.737 25.7154 129.737 34.6813V57.6063L125.353 59L121.745 57.676L121.038 48.896L120.895 40.1862C120.849 38.5139 120.895 34.4954 121.038 28.1311L121.603 19.9782C121.65 19.142 121.579 18.329 121.392 17.5393C120.589 16.3314 119.553 15.7275 118.279 15.7275L115.874 16.0759L113.045 16.3547C111.252 16.3547 109.578 15.8436 108.023 14.8217L107.174 13.637C107.127 13.4977 107.008 13.0563 106.82 12.3131C106.82 11.5697 107.033 11.0123 107.456 10.6407L108.589 9.66512C109.956 9.66512 112.019 9.81602 114.777 10.1181C117.536 10.42 119.599 10.571 120.967 10.571C121.249 10.571 121.415 10.4083 121.462 10.0832L121.321 9.10765L121.249 8.1321L121.462 6.80812C121.603 6.29703 121.862 5.83256 122.24 5.41446C122.428 5.08924 122.994 4.79885 123.938 4.54343C124.881 4.28788 125.636 3.85813 126.2 3.2543ZM81.4392 3.2543C84.9287 3.2078 88.1117 6.39002 90.9883 12.8009C94.1951 19.9085 96.2464 25.5295 97.1428 29.6641L102.589 54.5403L102.094 56.352C101.858 57.1426 101.528 57.7229 101.104 58.0941C100.679 58.4666 100.231 58.7213 99.7599 58.8606L98.5574 59C97.7549 59 97.1891 58.9544 96.8598 58.8606L95.4452 58.4425V55.2371L95.5159 52.1711C95.6098 48.9657 95.1854 46.6203 94.2427 45.1337C93.299 43.6471 91.3655 42.9039 88.4419 42.9039C80.2368 42.8574 75.1085 43.2871 73.0573 44.193C71.006 45.0989 69.4263 47.0384 68.3181 50.0109C67.2099 52.9845 65.194 55.6793 62.2704 58.0941L60.8557 58.5122L59.2995 58.6516C58.545 58.6516 58.0028 58.4197 57.6727 57.9548C57.5312 57.5367 57.4605 56.9792 57.4605 56.2824C57.4605 54.8887 57.6019 53.5191 57.8849 52.1711C58.2621 50.4062 58.6157 49.0822 58.9459 48.1991C60.0776 45.2731 62.0582 38.5602 64.8875 28.0614C67.1982 19.5136 69.5324 13.0796 71.8902 8.75924C73.8707 5.13573 77.0537 3.30067 81.4392 3.2543ZM30.3115 3.2543C32.6693 3.2543 35.4751 4.46209 38.7289 6.8778C41.9826 9.29339 43.6095 11.9182 43.6095 14.752C43.6095 17.2141 43.2794 19.3046 42.6192 21.0234C42.0534 22.9746 40.7094 24.6933 38.5874 26.18C43.0201 28.2705 46.5803 30.1519 49.2682 31.8243C51.7204 33.3573 52.9699 36.191 53.0171 40.3256C52.404 42.1374 52.0622 43.1593 51.9915 43.3917C51.9207 43.6239 51.6496 44.2045 51.178 45.1337C48.8203 49.8259 45.2128 53.3797 40.3557 55.7946C36.0174 57.9319 30.9953 59 25.2894 59C21.1869 59 17.9096 58.4197 15.4574 57.2579L8.66699 54.0525L7.81818 50.3593L9.02066 48.7566L15.316 49.1747C14.8916 47.2705 14.5379 45.5982 14.255 44.1582C14.0192 43.1361 13.7126 41.5102 13.3354 39.2804C13.0053 37.608 12.8168 35.3316 12.7696 32.4514C12.7224 30.3144 12.9818 28.7814 13.5476 27.8524L15.316 26.18C15.2217 25.7619 15.0095 25.1811 14.6794 24.4379C14.6794 24.3449 14.4672 23.6017 14.0428 22.208C13.6184 20.8144 13.4062 19.0723 13.4062 16.9818C13.4062 7.83005 19.0413 3.2543 30.3115 3.2543ZM485.195 3.25315C487.449 3.28875 489.504 3.59105 491.36 4.16017C494.473 5.08923 496.029 6.57576 496.029 8.61988C496.029 9.64181 495.629 10.7567 494.826 11.9647C494.356 11.9182 493.801 11.8601 493.165 11.7905C492.528 11.7208 492.138 11.6859 491.997 11.6859C491.809 11.6859 491.431 11.6859 490.865 11.6859C490.158 11.6859 489.546 11.6859 489.026 11.6859C485.443 11.6394 482.212 12.1961 479.335 13.356C476.743 14.4231 475.422 16.3016 475.374 18.9917C475.374 20.1516 478.039 22.2392 483.367 25.2545C489.922 28.965 493.482 31.0755 494.048 31.5858C496.877 33.9979 498.317 37.9175 498.363 43.3448C498.411 48.0762 495.982 51.9734 491.077 55.0344C486.833 57.6785 482.189 59 477.143 59C473.371 59 469.704 58.2107 466.144 56.6308C462.584 55.0521 460.803 52.8451 460.803 50.0109V46.6667C460.803 45.4125 461.181 44.7853 461.935 44.7853C468.442 47.9901 475.705 49.5928 483.721 49.5928C485.514 49.2216 486.692 48.1991 487.258 46.5274C487.588 45.5053 487.753 43.8561 487.753 41.5799C487.753 38.0958 485.772 35.4245 481.811 33.5664L470.777 28.4098C466.816 26.0406 464.812 22.8816 464.764 18.933C464.718 15.7275 467.146 12.2666 472.05 8.5502C476.718 5.06605 480.775 3.30067 484.216 3.2543C484.547 3.24847 484.873 3.24808 485.195 3.25315ZM317.749 3.25315C320.003 3.28875 322.058 3.59105 323.915 4.16017C327.028 5.08923 328.583 6.57576 328.583 8.61988C328.583 9.64181 328.183 10.7567 327.381 11.9647C326.909 11.9182 326.355 11.8601 325.718 11.7905C325.082 11.7208 324.692 11.6859 324.552 11.6859C324.363 11.6859 323.985 11.6859 323.419 11.6859C322.712 11.6859 322.099 11.6859 321.58 11.6859C317.997 11.6394 314.766 12.1961 311.891 13.356C309.297 14.4231 307.976 16.3016 307.929 18.9917C307.929 20.1516 310.593 22.2392 315.921 25.2545C322.476 28.965 326.037 31.0755 326.602 31.5858C329.431 33.9979 330.87 37.9175 330.918 43.3448C330.964 48.0762 328.536 51.9734 323.631 55.0344C319.387 57.6785 314.743 59 309.698 59C305.925 59 302.258 58.2107 298.698 56.6308C295.138 55.0521 293.357 52.8451 293.357 50.0109V46.6667C293.357 45.4125 293.735 44.7853 294.489 44.7853C300.996 47.9901 308.259 49.5928 316.275 49.5928C318.068 49.2216 319.247 48.1991 319.812 46.5274C320.142 45.5053 320.308 43.8561 320.308 41.5799C320.308 38.0958 318.326 35.4245 314.366 33.5664L303.332 28.4098C299.369 26.0406 297.366 22.8816 297.319 18.933C297.272 15.7275 299.7 12.2666 304.604 8.5502C309.272 5.06605 313.328 3.30067 316.771 3.2543C317.1 3.24847 317.427 3.24808 317.749 3.25315ZM274.06 2C275.097 2 275.782 2.4181 276.111 3.2543V10.1529C271.725 11.7788 267.647 12.8472 263.874 13.3583C259.96 13.8693 257.744 14.8217 257.226 16.2153C256.801 17.3766 256.542 21.9525 256.447 29.9428C266.35 27.2484 272.669 25.8779 275.404 25.8316C277.808 25.7851 279.011 26.6444 279.011 28.4098C279.011 29.246 278.634 30.6164 277.879 32.5211C273.541 33.6824 269.203 34.8438 264.864 36.0053C258.452 37.817 255.221 39.7216 255.174 41.7193C255.127 44.4136 255.598 46.6203 256.588 48.3385C257.768 50.429 259.63 51.4742 262.178 51.4742C263.308 51.4742 264.923 51.1613 267.022 50.5341C269.121 49.907 270.712 49.57 271.796 49.5231C275.097 49.4306 280.615 50.638 288.348 53.1466L288.631 53.6344C288.772 53.7738 288.843 54.0525 288.843 54.4706C288.843 54.8431 288.655 55.2143 288.277 55.5855C287.379 56.4686 284.805 57.1426 280.553 57.6063C278.239 57.7001 274.744 57.8623 270.068 58.0941C268.792 58.141 267.304 58.2107 265.604 58.3032L250.865 59L247.889 55.6552V44.6459C247.889 41.1153 247.441 39.3267 246.544 39.2804L244.848 39.6985L242.512 40.0469C241.711 40.0469 241.216 40.0236 241.028 39.9772C239.896 39.9307 238.199 39.1642 235.934 37.6777V32.5211C236.926 32.2888 237.421 31.7429 237.421 30.8836C237.421 30.0241 240.509 29.5711 246.686 29.5248C246.686 28.5956 246.662 27.829 246.616 27.2252C246.521 25.6457 246.403 23.7874 246.262 21.6506L245.837 15.1004C245.555 10.8264 247.041 7.621 250.294 5.48415C253.264 3.53302 259.559 2.55747 269.179 2.55747L274.06 2Z" stroke="#FFDE00" stroke-width="20" stroke-miterlimit="10" stroke-linejoin="round"/>
</g>
</svg>
